<?xml version="1.0" encoding="UTF-8"?>
<svg id="svg2" xmlns="http://www.w3.org/2000/svg" viewBox="0 0 340.49 372.05">
  <defs>
    <style>
      .cls-1 {
        fill: none;
        stroke: #fff;
        stroke-miterlimit: 10;
      }
    </style>
  </defs>
  <path id="IN-AN" class="cls-1" d="M297.95,365.96v.27l.44.16.06,1.33.72.96h-.39l.39.48-.33.11-.22.48.06,1.01-.22.21-.39-.27-.28.69-.28-.11.11-.59-.33-.16-.06-.69-.44-.37.06-.43-.61-.59-.33.11-.06-1.07.22-.16-.22-.16.33-.75.55.05.33-.32.5.16.06-.37h.33ZM296.4,363.67l.5.96-1.22,1.33-.33-.75.11-.69.94-.27v-.59h0ZM292.53,357.16l.33.21.06.53.22-.05.39.43-.06.64-.44-.37-.77.21-.17-.32.17-.27-.5.11.11-.8.66-.32h0ZM294.47,357.11l.39.43-.06.69-.83-.64.28-.48.22.32v-.32h0ZM294.8,355.99l.17,1.01-.39-.91.22-.11h0ZM294.25,354.82l.22.37-.5.53.5.69v.59l-.22-.16-.28.16-.11.43-.17-.53.22.05.06-.32.06.27.11-.37-.5.32.06-.43-.33-.32-.06-.59.94-.69h0ZM290.87,354.45l.06.48-.22-.27.17-.21ZM289.6,353.38l.22.11-.22.8.89.69-.06.27-.89-.32-.44-.53.11-.8.39-.21h0ZM288.66,352.1l.17.37-.28-.11.11-.27ZM295.24,350.93l.33,1.17h-.17l-.06.53-.11-1.71ZM285.67,343.35l.44.53.33-.16-.33.21.06.59-.5.27-.66-.11-.11-1.01h.55l.11-.48.11.16ZM282.52,324.58l.17.37v-.21l.33.27v.69l.33.16.11,1.23-.66.75.33.37-.66.75-.89-.43-.55.16.39-.96-.44-.59-.06-1.28.22.27.66-1.17.5-.32.11.27.11-.32ZM283.95,317.6l.5.85-.44.32.5.21-.06.21-1.05.27-.22-.21.06-.37.44-.05-.11-.8.39-.43ZM283.46,317.28l-.17.11.11-.48.06.37ZM279.08,316.69l.61.11v.69l-.66-.05.06-.75ZM282.79,316.53l.33.16-.44.37.11-.53h0ZM288.38,313.81l.61.11-.28.27-.39-.16.06-.21ZM287.77,311.62l.17-.11.33.27.5,1.33-.11.21-.5-.8h-.28l-.55-.53.44-.64v.27h0ZM287.99,310.88l.06.69-.33-.32v-.37h.28ZM288.44,310.24l.22,1.28-.44-.37v-.37l-.61-.37.33-.05.22.32.28-.43h0ZM288.93,309.6l.33.8-.22.69-.44-.59.33-.91ZM284.67,309.33l.06.8.55-.11-.33,1.12.72.32-.28.32-.28-.21-.06.27.39.21-.55.43.06,1.28.28-.91.44-.05.06.37-.39,2.29-.17-.11-.06.27-.44-.21.06.43-.5.16.11.32.17-.16.06.21.39-.43-.11-.32.39.21-.5,2.13-.17-.32-.61-.16v-.59l-.33.11-.11-.64.33.05.11-.21-.17-.16-.28.21-.22-.96-.28.27-.17-1.6-.28.11-.11-.27.55-1.12.28.69.17-.11.06.43.06-.16.17-2.67.94-1.55h0ZM285.06,309.54h.22l-.06.37-.28-.05.11-.32h0ZM287,309.12l.11.37-.28-.11-.06.21-.11-.32.33-.16h0ZM289.04,309.01l.11.27.22-.27-.06.64-.44-.27.17-.37ZM287.44,308.8l-.22.59-.22-.64.28.11.11-.32.06.27ZM285.56,308.48l.72.21.33-.16.28.48-.33.21.28.59-.39-.05.06.48-.33-.11-.22.37.11.27-.55.48-.28-.37.33-1.6-.44-.05.11-.32.17.11.22-.27-.06-.27h0ZM297.84,308.37l.39.37.06.59-.61-.11-.11-.48.28-.37h0ZM287.61,307.3l-.28.64-.17-.05.11-.59h.33ZM284.78,302.56l.06,1.28-.28-.91.22-.37ZM286.94,301.54l.28.05-.22.32h.28l.28.85-.22.37.55.75-.28.75.11,1.65-.44.16v.16h.33l-.5.27v.43l-1-.27.77,1.23-.72.21-.72-.21-.22.27-.39-.05-.22-.32.11-3.09-.28-.11h.22l.55-.75-.28-.27.22-.32-.28-1.17.17.21.83-1.01.39.27h0l.33-.05h0l.33-.32h0ZM284.62,300.69l.28.16v1.01l-.22.53-.28.05.17.21-.22.37-.22-.91.22-1.17.28-.27h0ZM288.21,300.64l-.33.32.06.37-.33-.05.11-.53.17.21.33-.32h0ZM288.49,293.97l.17.53-.11,1.01.11.37.17-.21.11.16-.17.27.39.53-.28.37-.39-.48-.33-.11-.22.27-.17-.37-.22.21.66.27.06.48.39-.05v.27l.22-.16-.39,1.07.06,1.12-.33.59-.44-.05.11.27-.44-.53-.22.05-.17.37.44.59-.28.27-.06-.43h-.28l-.33.64.22.53h0l-.33.05h0l-.55-.43v-.8h.28l.06-.32-.44-.05.11-.8.28-.05-.17-.37.44-.16-.44-.16.22-.96.33-.21-.39-.21.22-.27-.22-.11.22-.75.33-.11-.28-.21h.28l.17-.32-.17-.48.66-.37-.11-.37.55-.11.28.21v-.53l.28.37.11-.32h0ZM288.33,292.8l.17.59-.61-.32.44-.27ZM295.57,278.67l-.33.8v-.43l.33-.37h0Z"/>
  <path id="IN-AP" class="cls-1" d="M164.15,257.6h0ZM164.54,257.6l-.22,1.33-.44-.59v-.43l.66-.32ZM164.15,257.6l-.06-.32-.17.21-.72.05-.06-.37-.5.32.94.43h0v.53l.28.05.39.8-4.21,2.03-2.6,1.01-2.1-.59-1.72.21-1.49.69-1.44,3.04.06.53-1.6,1.65-.17.27.22.48-.5.43-1.66.21-.5-.8.17-.43h.22l-.06-.32-1.38-.48-1.72.32-1.22.59-1.05.69-.83.91-.77,2.4-1.16,1.81-.61,2.67.77,4,1,1.65-.77,5.39,1.33,3.47-.11,2.08.94,2.35-1.66-2.93-.33-.16-.06,1.01-.33-.32.22-.32-.22-.05-.66,1.01,1.27,1.12h.89l.89.75h0v.59l-.44-.21-.55-1.01h-.89l-.94-.69-.89.11-.06.21.5.11.06.21-.33-.05-.11.32-.39.11v.37l-.33.16.22.37-.33.43-.89.37h-.61l-.22.27-.28-.21-.39.37.72.53-.44.32-.28-.32-.39.16.11-.32-.28.05-.06-.59-1,.43-.39-.27-.17-.48-1.22-.16-.61.21.61.27-.17.8.28-.21.11.16-.28.11v.27l-.89.27.06.37-.55.37-.44-.53-.55.05v.37l-.33.21-.44.91-1-.05-1.05-.69-.77.11-.22.37.39.21h-.5l-.06-.75-1.49.48-.5-.11-.11.59-.5-.16-.44.43.39.69h-.22l-.5,1.71-.44.32v.69l-.28.05-.11-.27h-.28l-.06.48h-.33v.53l-1.05.05-.89-.48-.28-.43-.89.11.44-.37-.06-.43h0l.22-1.07h.72l.5-.91.39.37.66-.05-.17-.8.39.05-.06-.8.61-.27-.06-.32.28-.16-.22-.27.72-.43-.33-.37.33-.21.11-.64-.28-.43-.39.48-.55-.59-.39.11-.11-.21-.39.16-.28-.21.33-.16-.5-.27.39-2.56-1.88-.11-.5.37.11-.69-.39-.11-.06-.27-.89.16-.28-.37.06-.27.5.05.06-.32-.28-.27.39-.48-.06-.75-.83-.53-.06.37-.61-.11-.22.48h-.22v-.69l.39-.16-.11-.64-.61.64-.28-.37-.77-.05-.11.32.22.53-.61.27.06.27-.77.27-.06.64-.17-.32-.39.11.06-.27h-.22l-.44.21.33.21-.17.11-.28-.16-.44.32-.44-.32-.11.69-.28-.27-.06.32-.39.05.11-1.39h-.55l.17-.43-.77-.11-.44.21-.17-.37-.66.21-.17-.64-.28.37-.06-.21-.28.27v-.64l-.22.21.06.48-.44.11.44.32.06.75-.83-.05-.39.27-.39-.37-.17.43-.22-.11-.28-.8.55-.91.28-.05-.06-.32-1.22-1.12.5-.48-.55-.69-.5-.05.11-.32.55-.05.06-.27.89.21-.11.85.17.53,1.11.11.28.59,1.94-.37.44.48-.06,1.01h.5v.21l.39-.32-.22-.32.28-.37h-.66l.11-.43-.66-.16.77-.91-.06-.16-.5.27.06-.32.33-.05.17-.43,1.27.16-.06-1.39h-.5l-.17-.43-.66-.16-.11.32.5.96-.39.21-.33-.43.06-.43-.94-.05v-.64l-.55.21-.94-.32-.44.59-.06.85-.33.05-.28-.37h-1.27l-.17-.37.28-.27-.83-.59.06-.48.33-.27.33.16v-.53l.33-.37-1.22.11-.5-.64-.33-.05-.44-.85.44-1.55-.22-.53.77-.27.17-1.87-.44.16-.72-.21.22-.53-.11-.64.28-.21.94.69,1.22.21.22-.21h.55l-.06.27.44.05.89-1.39-.28-.27.28-.05v-.53l-.44-.32.5-.43-.17-.32-.39-.05-.06-.43-.55.05-.39-1.33-.66-.64v-.16l.61.05.06-1.55.61-.21.39.32.11-.37-.94-.85.22-1.01-.5-.11.5-.8.89-.48,1.22-.21,3.04.43h0l1.11.11.61.43.66-.11.94.27,1.05-.37,1.33.43.39-.48.33.69.55.21.17-.27h.44l.17-.59.66-.32.22-1.17h.66l1.05-.59,1.77.27.66-.48,1.11.85.72.05.72-.75v-.8l.28.05.11.48.44.05-.06-.91.22-.21,1.22-.48,1.66.32.5-.27.06-3.15.5-.64,1.88-.27.83-.53,1.77-.37,1.49-.8.39.48.61-.11.44.69.66-.05,1.05-1.23.28-.8-.44-.48-.5-.11.22-.53.44-.69,1-.21.55-.69.22.37.72.05.44.64.22,1.01.44.21.17.53.33-.43.61.43.06.32,1.22.32.5-.27-.55-.43.11-.53.28-.05-.06-.64-1.05-.27-.06.37-1.49-.64.33-.53-.28-.48.33-.27.28.64.28.11.44-.37.17-.69.72-.37,1.11.59-.22.37,1-.11,1.22.48.33-.32.11-1.12h.5l-.11-.64,1,.27.66-.37,1.33-.21.22-1.07h1l.66-.85.55.37.5-.05.89-1.01.11-1.07.28-.37-.22-.21.77-1.17.06-.43,2.38-1.23.11-.27-.39-.48h0l.5-.48,1.77-.64.83-.75,1.55.16.22.37.72.37.28-.05v-.75l.33-.16.11.27.28-.05.06-1.17.28.21.11-.16-.66-.64.33-.21.06-.59.39-.11.22-.37-.66-.11.55-.59-.28-.48,1.33-1.49.28.43h.28l.06.8.28-.05-.22.59.77.27.11.27-.39.48.06.43.55.48.39-.69,1.27-.53.28-.75-.22-.27.28-.21.55.37.44-.05.11.53.5.16,1-.37.44.11.06-.64-.22.11-.28-.32.83-1.12-.66-.11-.06-.21.33-.21h-.55l.06-.59.44-.16.94-1.39.77.37.06.32.17-.59.55.11.17-.37.89-.11.06-.37h.44l.17-.32-.77-.8.39.05-.39-.37-.22.48-.28-.85.5-.21.72.16.55.59-.06-.64h.28l.06-.27-.22-.59.17-.11.22.27.11-.16.11.48h-.22v.16l.44.05.17-.8.39.27.28-.48-.11-.37.33-.37.83,1.6.28.05-.22.32.44.8.39.11-.44-.85.55-.37.94,2.24.83.27,1-.05.61.69.5-.05.33-.32,2.1-.21.06-.91.33.16.11-.21-.22-.21.44.05-.28-.21.39.11.39-.32-.17-.27.28-.32-.28-.53.66.37.22-.48.89-.53.28.64.28-.48.5.05v-.32l-.39.05-.33-.59h.83l.06-.43.44.05-.11.37.28.27h0l.5.27-2.05,2.29-.33,1.01-1,.96-1.27,1.87-2.66,2.4v.48l-4.7,2.29-1.72,1.12-.5.8-1.38,1.23v.37l-.77,1.01-1.49,1.6-7.03,3.47-2.77,2.08-.83,1.01-.28,1.07-.28.11.11.53.66.53.5-.11-.11,1.33-.94-.43h0Z"/>
  <path id="IN-AR" class="cls-1" d="M324.68,103.21l.33.48-.06.43.72.96h.55l.83-.64.33.37-.55,1.12-1,.16-.89.85-.83.21.44.32.39.85-.44.64.22.43.94-.48,1.16-1.12,1.05-.05,1.05-.53-.55,1.07.11.37.39-.05.22,1.12.89,1.33-.33.75-1.33.43.22.64-.77.64-.33-.11.06.37-.61.05-.33.32.55.59-1.27.96.66.32.61-.11.33.64.28-.11.39-.85h.61l.83-.59,1-.05,1,.59.28.59.89.05.55-.21.33.53.83.37,1.11-.69.94.91,1.27.27,1.38.96-.44.05-.39.43.11.53-.39.53.77.11.06.37.44.21-.44.48.11,1.12-.77.11-.17-.53-.61.27-1.77,1.49-.06.53h-.77l-.61.96-.44.05-.5.59.44,1.12-.28.85,2.99,4.11-.28.43-.44-.21-.44.16-1-.75-1.27-.32-.17-.32.33-.21-.06-.37-.28-.05-.66-1.01-1.05-.32-.17.21-1-.05-1.05.96-.61-.21-2.71.37-2.27,1.12-1.16,1.81-.66.43h-.83l-.89,1.65-.66-.27-.72,1.12-.89-.11-1.22,1.65-1.44.53-.77-.37h0l-.22-.64.33-.64-.33-.16-.06-.64-.28-.16.55-.32-.44-1.92h0l.61.16,1.16-.96,1.27-.37v-.96l.66-.69.83.48,2.49-.8.61-.05.39.37.17-.37,1.27-.96-.44-.85-.11.16-.22-.27h-.39l-.28.48-.06-.48-.22.32-.22-.16.44-.96-.11-.59-.5-.16-.17-.48-.44-.27.17-.32-.28-.32.22-.21-.44-.53.33-.16-.11-.21.5-.64,1.22-1.01.55-1.01-1.77-.11-2.55.27-1.05.96-1.55.48-.77-.37-3.32,1.23-1.99.43-.22.48-.39.11-.44.37h-.77l-.06.21-2.6,1.17-.33-.59-.72.32-.83-.37-.28.16-.28-.59-.5.37.5.69.06.43-1.16.59-1.11,1.44-1.22.85-1.83,1.97.33.21.11.53-.72.16-1.11,1.12-2.16.43-1.66-.32-3.82.59-1.16-.59v-.27l-.5-.27-2.49-.37-.22.27.06.37-.72.32h-1.44l-.72.48-.55-.11-.89.43-1.94.11h0l-.06-1.44-.83-.69-.11-1.23.55-.75-.33-.53.72-.05.22-.21-.72-.48-.06-.91-.39-1.01-.94.27-.89-.27-1.66.16-.33-.43-.5.21-.94-1.12.11-.43-.22-.32.77-.91.17-.75-.11-.43-.33-.27-.39.05-.28-.53,1.38-.05.55.59,1.33.05.44.91.66.27.77-.69.83.16,1.77-1.28h.61l.61,1.01.72-.21.33-.32.55.21.55-.48.66.27.5-.69.72-.27.83-1.12-.89-.91.28-.8,1.33-.96.33.37.77-.43.83-.75.44.37.39-.43-.11-.53,2.27-.37.17-.85-.55-.48,1.11-.8.33-.8-.06-.43.33-.11.11-.43,1.27-.48.33.27.22-.37.5.32h1l1.27-.43.5.27.77-.48.94.48.89-1.33-.17-.27.11-.53,1.88-1.44.66-1.65.83-.8.77-.05.17-.48.66-.48,1.49-.05.83-1.55.94.59.77.8.22.96.83-.27,1.77.69-.28-.53,1.16.37.28.37,1.49.11.17.69,1.66.32.5-.05.33-.43.17-.91.61.16-.11-1.12.55-.05.17-.59.44.16,1.6-1.39.22.27,1-.69.89.11,1.44-1.01.77.91Z"/>
  <path id="IN-AS" class="cls-1" d="M251.86,151.64l.11.69-.28.16h0l.17-.85ZM277.81,134.78l1.94-.11.89-.43.55.11.72-.48h1.44l.72-.32-.06-.37.22-.27,2.49.37.5.27v.27l1.16.59,3.82-.59,1.66.32,2.16-.43,1.11-1.12.72-.16-.11-.53-.33-.21,1.83-1.97,1.22-.85,1.11-1.44,1.16-.59-.06-.43-.5-.69.5-.37.28.59.28-.16.83.37.72-.32.33.59,2.6-1.17.06-.21h.77l.44-.37.5-.05.22-.48,1.99-.43,3.32-1.23.77.37,1.55-.48,1.05-.96,2.55-.27,1.77.11-.55,1.01-1.22,1.01-.5.64.11.21-.33.16.44.53-.22.21.28.32-.17.32.44.27.17.48.5.16.11.59-.44.96.22.16.22-.32.06.48.28-.48h.39l.22.27.11-.16.44.85-1.27.96-.17.37-.39-.37-.61.05-2.49.8-.83-.48-.66.69v.96l-1.27.37-1.16.96-.61-.16h0l-1,.96-1.05.53-.39.11-.66-.43-.5.27-1,1.6-1.33.91-.66.16-.28-.27-.33.59-.33-.27-.89.53-.33.27-.61.27-.11,1.01-.55.32-.39.59-.28-.21-.06-1.07-.17.05-1.05,1.23-.11,1.44-.77.21-1.22,1.92-.17,1.28-.44.8.28,1.07-.72.37-.39.53-.44-.21-.55.59-.17-.37.22-.8-.28-.69-.22.37-.72.32.22.75-1.55,1.07-.83,1.28-.83.32-1.11,1.07.72,1.01.77.37.17.69-.33.43.28.43h0l-1,.8-.61,1.87-.39.59h-.44l-.22.37.17.85-.28.16.17.27-.28.53-.39.27v.53l-.5.27-.33-.37-.17.11-.06.85-.39.37.33.43-.33.96.39.16-.55.11.11.16-.44.8.06,1.07-.44.11h0l-.77.11-.28-.21-.06.21-.5-.05-.39.27-.72-1.76-.77,2.03-.77.27-.17.96-.72.11-.22.85-.55.16-.06.27-.5-.16-.17-1.23h-1.44l-1,.05.66-1.6-.5-1.01v-.53h0l.22-1.87.55-.96-.66-2.03.66-.27,1.05.85.5-.05.22-.32.5.05.17-.37-.17-.64-.22.16-.17-.16.28-.05-.17-.21-.39.05-.06-.75h0l.44-.05.22-.85.66.11-.22-.48,1.11.27.5-.75,1.6-.53-.44-.37.33-.43-.11-.59-.28-.05-.28-.59-.22.05-.5-.53-.17.11-.06-.32-.5.21-.11-.69-.33.05.89-.85.11-.69-.61.43-.33-.05-.17-.64-.66-.16-.44-.75-.39-.11v-.48l-.55-.27-.61.37-1.22.11-.77.53-.11-1.76.33-.69.55-.48-.72-.05-.11-.43,1.66-1.65-.66.21-.72-.21-.5.43-.94.16-.72-.11-.77.53-.61-.64.06-.59-.66-.27-1,.75-.11,1.33-.61.59-.66-.43.33-.32-.06-.69-.66-.11-.89,1.39.33-.05-.66.64.39.05.28-.27-.06.21-.94.37-.28-.16-1,.21-.66,1.12-.61.27-.39-.05-.17-.59.17-1.01-1.55.48-.17-.11.33-.32-.33.05-.55.32.33-.8h-.72l-.28-.75-.33.05.06.37-.44-.48-.55.16-.33-.16-.39.53-.44-.11.06-.53-.55.27-.72.64-.22-.16.28-.32-.55-.27-.83.8.28-.75-.66-.69-.55.32-.39-.32-.39.05-.5.43-1.66.37-.72-.21-1.33,1.01.22.16-.17.21-.72.27.11.64-.28.37-.5.11,1.44,1.65-1.72.69h0l.17-1.07-.61-1.07.11-.64-.33-.59.89-1.55-.44-.05-.11-.21.39-.16-.44-.43v.37l-.22-.05-.22-.69-.11.05.28-.27-.06-.37-.44-.27.11-.21-.22-.37-.39-.11h0l.17-.11-.44-.16.44-.27-.39-.05.39-.27-.28-.37.22.16.17-.16-.22-.43.5.21-.11-.43.33-.11v-.27l.89-.37-.11-.21-.22.05.5-.8-.22-.37.11-1.12.17-.05-.22-.48.22-.32-.22-.69h0l.06-.43,1.11.16,2.16-.37.5-.21-.06-.48.33-.53,1,.05.61-.59.61-.05,1.72,1.28,1.77.43,3.98-.16.5-.48,1.94.16.83.32.83-.69,1,.59,1.49-.37.72.21,1.33-.59.66-.8h.44l1,.75.72.16.5-.16.33-.69h0Z"/>
  <path id="IN-BR" class="cls-1" d="M231.44,139.26h0ZM185.23,127l.39-.05v.37l.66.21.06.32.55-.11.44.85,3.76.59.83,1.55-.17,1.49-.39.59,1.33.59.17-.21.22.27.44-.32.72.64.83.11.17.27-.11.32,1.05.37-.44.37,1.99-.16-.22.69.39.69,1.44.21.83-.64.55.11,2.1-1.12,1.16.96v1.76l1,.64.39-.11v.53l1.16-.59.17-.48.77-.21,1.27.48v.27l.66-.11.28.32.39-.37.89-.05,2.49,1.01.33.53,1.88.96.39-.48.77.27.72-.27v-.32l.44-.05.06-.32.94-.21.33-.69h.33l.22,1.71.83.59,1.11-.11.11.48.55.05.33.32.33-.75,1.11-.43,1.6.75.55-.16.28-.53.66.32.39-.05.28-.69.66.43.44-.64.44.85.77.32.06.32h.39l.06-.32.72-.59.11-1.23h0l.44.32.28-.32.72-.16v.27l-.61.53.17.21.39-.05.06.37.44.32-.44.37.06.21.33-.05.28.32-.89.91-.83.37-.89.96h-.39l-.28.48-.55-.16.06.91-.33-.05-.06.21-.22-.27-.83.59-.17,1.33-.28.27.22.48,1,.27-.33.27.33.16-.17.53h.39l.33.59,1,.43-.17.69.22.05-.39.59.17.64.44.43-.06.27-.5-.05-.22-.32-.06.21-.22-.11v-.27l-.72-.16-.33.37-.22-.16-.17.64h-.33l-.28.37-.33-.11-.28.48.06.32.28.05-.06.48.83.69-.39.53.17.43-.55-.27h0l-.06-.32-.89-.11-.28-.64h-.89l-.33-.43-.39.21-.11.59-.66-.16.17.43-.28.27v.59l-.94-.43-.28.27-.55-.21-.39,1.65-.44-.21-.44.21-.77.8.11,1.71-.06.32-.44.05-.44.43.22.27-.55,2.4-1.38-.43-.39.69.17.59-.39-.37-.28.21-.22-.21-.44.05.06-.37-.33-.32h-.28l-.22.53-.72.21-.77-.53-.66.85-.5.21-.22,1.12-.28.05-.17.64-.44-.11-.77-.8-.83-.21.39-.59-.11-.59.22-.32-.66.11-.55-.43-.28.32-.72-.21-.11-1.23-.44-.48-.55.05.11-.48-1.16.59-.83-.85h-1.16l-.44-.27-.44,1.33-.55.32.17,1.28-1-.27-.11.48h-.39l-.22.48-.39-.32-2.38.32v.37l-1.49.43.22.43-.94.64-.28-.11.11-.64-.28.32-.72.05-.28.43-.83.05-.22-1.12-.55.11v-.75l-.44-.21-1.33.91-.22.75-1-.21-.06.37-.5.11.06.43-.39.64-.44-.64-.44.11.06-.32-.44-.37-.55-.05-.22-.32.17-.11-.44-.27v-.37l.39-.27-.39-.8h-.28l.11.16-.28.27-.28-.27-.22.21-.33-.27-.17.11.06.43-.39-.37-.06.43-.33.27-.72-1.6-.61-.32-.72,1.12-.72.16-1.77.32-2.55-.27h0l.5-1.23-.5-.32.17-.37-.39-.32v-.37l-.33.05-.77-.64.06-.59-.44-.48-.11-1.71-.28-.11.44-1.33-.28-.69.17-.21.44-.11.22-.53.61-.05.94-.8.28.11.66-.27.33-.48.44-.05-.17-.11.22-.21.11.11.33-.32.33.27.44-.27-.06-.27.5-.05-.33-.37.5-.11.77-1.07,1.83-.96-.06-.75.28-.32.61-.11.55.32.11.43.94.11v-.21l.39.05.17-.91.55-.05.28.59.55-.16.44.48.44-.11.11-.53-.06.43.22.11.06-.64.89.11-.33-.43.22-.43-.72-.53-.33.05v-.53l-1.22-.16-.17-.48-.66-.37-.66.16-1.11-.69-.39.11v-.43l-.89-.91-.5-.05-.33-.59-.06-1.17.77.27.39-.53.55.21.28-.91-.11-.69-1.16-.11-.72-.8-.33.16-.94-.21v-.85l.72.11.11-.27.83-.16.39-.69v-.53l2.21.53,1.66-.37-.17-.53-.89-.16-.33-.85-.61.32-.17-.11-.11-.21.33-.64-.11-.69-.39-.11-.44.48-.44-.27.11-.43-.44-.16-.11.32-.44-.16.28-.37-.28-.16.28-.27-.06-1.01-.55-.32.33-.32-.94.05.44-1.33-.28-.43-.66-.32.33-.59-.11-.27-.72.16-.28-.16.33-.37h0l.55-.43-.39-.11-.06-.48.72-.27,1.11.21.77-.69v-.32l.28.11h0Z"/>
  <path id="IN-CH" class="cls-1" d="M100.68,86.36l-.28.21-.77-.32-.39-.85.77-.53.11.27.33-.11-.06.27.39.05h0l-.11,1.01Z"/>
  <path id="IN-CT" class="cls-1" d="M176.05,169.4l1.16.21.28.48.66.16.44,1.6.39.16-.17.27,1.55.53.39.8-.17.91.72,1.01,1.88.43.06-.75.77-.11.17,1.07-.61,1.07-.06.91.5.32.44-.27.33.53-.44,2.35,1.11.69.22,1.44.5-.75.33.59.61-.16.06.32,1.05-.16.22.43-.22.91-.44.05-.5,1.17h-.33l-.33.32-.06.8-.83.43h-.83l-.89.8-.06.59h-.28l-.06.27.77.48-.44,1.17-1.66.27-1.27,1.23-.72-.05-.55.27-1,1.44.5.48-.72.11-.06,1.12.22.37.55.27-.33.48.17.32-.61.16.06.48-.55-.27-.28.37.22.48-.72.8.77.59-.39.27-.11-.53-.72.43-.55,1.39.17.64.5.53.11.59-.33.11-1.22-.43-.17.75.22.32-.66.32-.33,1.49-.83.43-.94-.21-1-.69-.89.32-.77-.11-.28.21-.44-.27-1.33.11.11.59-.39.37.17.43-.83,1.12-.77.48-.33.96-.5-.05-.17-.43-.61-.27-.11,1.49.39,1.6-.5.85.66.53.11.69.28-.27.22.59-.39,1.07.39.64-.28.21.11.75-.39.69.11,1.01,2.38.91.39-.16.89.11-.06,1.17.22.27-.17.48-.66.05-.72.64-.17-.59.28-.48-1.77-.48-.61.27-.55.64-1.27-1.97-.61.21-1.38-.85-.39.48-.94-1.12-.89.8-.33,1.01.17.48,1.27.64.22.69.94.16-.28.96.11,1.97-.28.43.83-.11.33,1.01.72.05-.22.59-.28.05.5.48-.39.64.33,1.28-.22.37.44.11.17.32-.22.37.33.53.17,1.23-.77.16-.11,1.23-.39.37h-.55l-.06.53-.5-.05-.77.32-.22.75-.72-.27.06.32.77.43-.11.32-.44-.05-.11.43-.44.16-1.11,1.17-.22.8-1,.05v.32l-.77.11-.77.48-.28.91.22.32-.17.75-.39.75.06.69-.44,1.12-.5-.11-.11.91h0l-1.49-.05-1.11-.48-1,.8-.5-.05-1.05-3.41.33-1.01-1.27.43-.17-.75.22-.11-.44-.32-.39.8-.72-.05v-.53l.61-.43-.5-.59-.33-.96.11-.32-.39-.11.11-.21-.55-.43-.22-.53-1.72-1.28-1.66.48-.89-1.55h0l-.28-.48.39-.05.83-.69-.94-1.23v-.69l.61-1.01.06-.8.72-.59-.06-.59.61-.27.44-.85,1.05-.8.5,1.12.72-.21.17.53.72-.05,1.11-.85-.66-.8,1.22-.48-.17-.64-.39-.11-.22-.37-.72-.05-.55-.48-.72-.05.11-.96-1.44-.96.06-.53-.83-.05.11.64-.28-.27h-.66l.06-.27.39.05.77-.69-.17-.37-.89-.11v-.32l.44-.27.44.32.44-.05.28-.69v-.96l-.06-.53-.5-.32-1.22-.05-.11-.21.33-.32-.33-.64,1.49-.32.39-.43.89-.32-.39-.75.44-2.51-.66-.11-.66.32-.33-.37.28-.43.83-.32-.39-.96-.06-2.03h-1l-.39-.91.28-.32-.17-.75.28-.91,2.05-.91.44-.59-.17-.37h0l.83-1.71-.22-1.39.11-1.49.28-.53.77.11.22-.69.06-1.6-.22-.27.33-.05.77-1.92.44.05.17.64.39-.05.06-.43-.39-.21.5-.21.06-1.17.77-.21.33-.59-.06-1.76.83-.59.44.48.66-.59.33.21.22-.53.66.21.22.8.33-.48.28.16-.11-.32h.5l.44-.59h1.11l.11-.32.28-.05.11-.75.61-.21.17-.32.22.32.28-.21-.17-.75.44-.48-.28-.8.11-.48,1-.21.06-.27.94-.53-.28-1.01.22-.43,1-.05.5-.43.55.16.39-.48-.11-1.07.55-.69-.06-.48-.55-.43-.33.05-.17-.53-.61.27-.39-.11v-.43l-.44.11-.72-1.44-1.05.27-.28-.43-.77-.27-.5.53-.44-.11-.33.48-.22-.21v-.53l-.33-.05-.11-.43.39-.16.11-.75h.33l.5-.75-.17-.37-.39-.21-.11-.75-.39-.27.17-.64.61-.21.72.8-.06.21.72.37.83-.16.72-.59.39.27.55-.11.5.53h1.33l.5-.43-.06.27.33.32.33-.16.83.21,1.55-.11.66.32.33-.11-.22-.37h.66l.77-.43.06-.64,1.05-.16.66-.48h0l1.49,1.07,1.72-.05,1.22-.53.33-.85.72-.43.17-.59.39-.11Z"/>
  <path id="IN-DD" class="cls-1" d="M29.52,209.82l.06-.96.72-1.76.33.37.89-.11.5.32.17.69-.94.43.94.32v.37h-.33v.37h-.28l.5.64h0l-.22-.11.06.16-.61.16-1.77-.91h0Z"/>
  <path id="IN-DL" class="cls-1" d="M104.94,109.83l.33.43-.22.53.33.11.72.96.44-.05-.17.91.28.48-.5.53.5.75h0l-1.11.32-.22.27.17.43-.89.27-.55-.43-.11-.64-.39-.32-.28.05-.5-.37v.37l-.44-.16-1.05.21-.5-.59-.06-.43h.22l.28-.59h.66l-.17-.27.44-.64-.17-1.49,1.05-.21.5-.59.61.27.11.32.66-.43Z"/>
  <path id="IN-DN" class="cls-1" d="M58.96,217.44l-.33.8-.55-.37-.94-.16-.11.37-.5-.53.11-.27-.33.27-.17-.21.17-.48-.17-.48h0l-.55-.8.22-.16.44.27.06-.27h.33v-.32l.28.32.06-.37.44-.05.17-.43.06.64.55-.16.22.37-.22-.05-.55.69-.39.05.06.85.11-.21.39.21.28-.21-.06-.43.72.11.22.21-.39.48.39.32Z"/>
  <path id="IN-GA" class="cls-1" d="M64.32,269.12l1.77-.16.39-.69.22.53.72.11.28,1.12.33.37.33.05,1.16-.53h.55l.17-.32.28.37.22-.21.28.16.17.53-.17.53.39.48-.33.43.28.53v.64l.55.27.17.85-1,.43.55.37.17.48-.39.48-.11.53.28.64-.5.59.11.27-.66.53-.44-.32.06.48-.44-.11-.5.27h0l-.61-.27.11-.48-1-1.23-.66-.21.44-.69-.61-2.13-.22-.43-.39.11-.66-.59,1.11.16.22-.21-.55-.43-.72-.11.22-.37h-.5l-.33-1.39-.72-1.44h0Z"/>
  <path id="IN-GJ" class="cls-1" d="M17.4,189.39l.33.37-.22.27-.55-.37.44-.27h0ZM11.7,189.18l.11.16-.72.53.11-.48s.5-.21.5-.21ZM21.82,187.79l.22.32-.77.21.11-.32c-.11-.05.44-.21.44-.21ZM5,179.05l.61.21.06.32-.5.11v.21l-.44-.32.33-.11c.06-.05-.06-.43-.06-.43ZM5.33,178.3l.33.27v.32l-.44-.32-.11-.27h.22ZM4.01,177.02l.28.32-.11.64-.28-.16.06-.43-.44.43-.11-.16c-.11-.05.61-.64.61-.64ZM4.12,175.58v.43l-.61.64.06-.59.55-.48h0ZM3.84,175.26l.11.27-.28.16-.11-.32.28-.11ZM2.68,173.02l.44.27.33-.11-.44,1.71-.89.85-.44-.11.22-.11-.22-.21-.39.16.11.21h-.33l.06-.21-.33.11-.11-.32.22-.27h.77l.72-.91.28-1.07h0ZM2.24,173.13l.06.8-.5.32v-1.01l.44-.11h0ZM4.28,172.7l.22.96-.94.16.22-.43-.11-.37c.06,0,.61-.32.61-.32ZM3.01,172.33h.33l.17.64-.66-.05-.06-.27.22-.32h0ZM3.67,171.47v.8l-.77-.11-.33.37.06-.59,1.05-.48h0ZM4.67,171.42l.28.27.33.05-.72.64-.28-.11.06-.27.5-.37-.17-.21h0ZM4.12,170.73l.44.85-.89.91.28-1.01-.17-.21-.33.11.22-.53.44-.11h0ZM3.51,170.73l-.22.75-.77.43-.11,1.01-.17.16-.22-.21-.44.37v1.23l-.33.11-.55-.59.5-.53-.17-.75h.28l.5-.96.66-.05.28-.75.44.16.33-.37h0ZM34.5,162.3l2.21.91.61-.59.39.37,1.22-.64,1.49.05.5.48,1.6-.48.17.59.55.21.22-.85.5.11.28.48,1.27-.96.39.11v.53l.94.48h.5l.22-.27,1,.32.44-.11-.33.37-.55-.16-.33.27.5.53.72-.16h0l.33.64.66-.05h0l-.06.53.33.64.5-.05-.11-.48.5-.69.5.43,1.27.21-.06.48.44.69,1.55-.05.66.48.77-.48-.33-.27.44-1.07.17-.16.44.21.5-.37.17.85-.28.37,1,.53.5-.32.22.11-.22.37-.22-.11-.17.53-.39-.05-.72,1.49.39.59,1.27.48-.28.59.55.48.5-.21.5-.59.06-.53.44-.16-.06.48.5.43-.11.75.22.75-.72.85v.91l.17.27.5-.16.66.85.33.05.06,1.07.72-.48.94.37-.28.91.22.53-.28.64.22.16.61-.16.28.53.44-.53.22.27.55-.16.72,1.33.5-.05.11-.37.28-.05.22.48.5.05.11.43h.66l.39.32-.06,1.12.66.32.28-.48.44.05.5.85-.06.27.44.37h0l.55,1.01-.33.16.22.37.44.43.61-.32.33.8-.89,1.55-.22,1.07h-1.38l-1.27,1.55-1-.43-.39.53.11.21.5-.21-.11.53.28-.05.22.59.22-.43.22.32.28-.16.06-.43.17.48.55.05.44.48-.44-.05-.33.48-.22-.11-.17.53-.66-.11-.28-.48-.44.16-.17.91.39.53-.17.27.55.11.11,1.39.28-.11.28.21-.94.85.66.37-.11.37h0l-3.87,1.6.39.37-.17.32.77.75-.11.64-1.16.27.44.32.44,1.23,2.43-.75h1.33l.28.32.33-.21.39.16.39-.37.28.27v.53l-.89.37-.22-.21-.06.27-1.11-.05-.22.16-.5-.43-.22.75-.94.32-.17-.11-.06,1.28-.66.43-.72-.05-.11,1.12-.94.05-.06.32-.66-.16-.5.21-.28-.53-.28.11.83.69,1.05-.05-.11.69.39.53.39-.16.11.32,1.05.16-.11.53.55,1.17.06,1.17-.33.21-.39-.05-.28.43h-.5l.28.32-.06.64-1.05.59-.55-.11-.33.21-.39-.21-.33-.69-.77-.43-.44.27-.17-.75-.33.11-.17.53-.44.27.44.59.44.16v.48l.22.05-.83,1.49-.44.27.39.48.06,1.76-.66.16-.06-.27-.17.16-.5-.11-.28.69-.83.32h0l-.22-.21.39-.48-.22-.21-.72-.11.06.43-.28.21-.39-.21-.11.21-.06-.85.39-.05.55-.69.22.05-.22-.37-.55.16-.06-.64-.17.43-.44.05-.06.37-.28-.32v.32h-.33l-.06.27-.44-.27-.22.16.55.8h0l-1.11-.16-.44.48v.48l-.39-.05v.27l-.72-.16h0l.22-1.87.77-.96.72-1.55.17-1.01-1.22-3.68v-.59l-.28.11-.55-1.39.55-.21-.77-.11.17-.85-.61-.16-.11.8-.39.16-.11-1.76-.33-.8.44-1.07.83-1.01-.61.37.33-1.07.33-.16-.28-.11-.66.59-.33-.75.33-.8.83-.43,1,.05.55-.27-.66.05-.5-.32-2.32.32-.33-.43.39-.43.33-1.07-.61-.43-.17-1.17.5-2.35.39-.59.77-.21,1.22.53.61-.85.77.27.28-.11.17-.53-.22.37-.33.05-.28-.48-1.05.64-.72-.11-.61-.53-1.05.48-.06-.37-.61.91.06-.48h-.28l-.39-.75-.5-.21.22-.48-.39-.32-.22.16.39.27-.22.48.44.16.06.85-.22.32-.5-.85.06.8.33.43-.17.21-.22-.43-.17.69-.22-.05-.5,2.4-.44-1.44.5-.32.11.11v-.53l-.77.64v.48l-.17.85.39.59.17,1.92.5,1.33-.94,2.29-1.11,1.28-.22.59-.39-.21.22.32-.17.37.39.59-1.11.48-.11.27.06-.64-.39.8-1.83.59-.28.16.11.21-1.05.21-1.72.85h-.61v.32l-.89.64-.72-.05.06.21-2.05.64-.61.27-.06.27h-.66l-.17.27-1.33-.05-.83.37h0l-.39-.53h0l-.11-.11h.28v-.37h.33v-.37l-.94-.32.94-.43-.17-.69-.5-.32-.89.11-.33-.37-.72,1.76-.06.96h0l-.66-.05-2.05-1.01-3.93-3.04-4.48-5.12.61-.59-.33-.85-.17.21-.55-.05.5.43-.28.11.33.27-.22.37-5.48-4.85-3.21-3.57-.22-.91.55-1.23.94-.8.22.11-.5.48.28.43,1.44-.32.11.27-.55,1.07.89.64,1-.43.17-.48,1,.16.77-.27.5-.16-.28-.59.61.37.11.59,1.05-.05.11-.43h.39v-.59l-.28-.11.66-.27.17.53.17-.11.44.48.44-.64.39.11.72-.75.28.16-.06-.43,1-.43.28.21,1.11-.05.94-1.33.11-.85.61-.27.61-1.39.83-.75.83-1.76-.66.16-.44.37-.17,1.01-.44.21-1.27-.59-.22.27-.66.16-.44-.21.11.43-3.87.91-.55.37-.55.96-.72-.32-.5.11-.55-.43-.94.21-1.38-.69-1.83-.11-4.43-2.77-.66-.16-1.94-1.6-.06-.21,1-.43h-.28l-.06-.96-.33-.43-.55-.05v-.37h-.28l-.39-.53-.17-2.03.11-.32.22.05.06-.43,1.27-.8.39-.64.83-.43-.22-.16-1.27.21-.89,1.01-.11-.8.39-.11.28-.53,1.05-.48-.5.05-.28-.32-.11.21h-.33l-.22-.27.11-.21h2.32l.28-4.05.61-.16.22,1.23.44.16.66-1.01.61.43,1.05-.53,1.22.43,1.27-.53,2.21.27,1.16-.27,1.44,1.28,3.21.11.66-.32.66-1.23,5.26-1.6.44.27-.44.69.17.43-.17.69.94.32,1.77.05,1-.43-.11-.43.89-.69.44-.16.55.16,1-.69-.17-.37-1.27-.16.11-1.01-.22-.21.28-1.12,1.05-.53h0Z"/>
  <path id="IN-HP" class="cls-1" d="M89.72,61.51l.61-.91-.33-.64.17-.85-.44-.75-.94-.75.17-.8h.66l.89.59,1.6-1.12.11-.48,1.66-.37.44-.96,1.33-1.12.89.11.89-.37.39.05.5.59,1.22-.21.28-.96.28-.11.28.27.28-.11-.28,1.23.5.59h.39l.44,1.07.94.59.44-.16.44.37.72-.11.11.91.33-.21.61.48.11.43.22-.16.55.32.28.48.33-.05.33-.8.77.32.33-.32h.39l.72-.75.83-.21.11-.37.55.21.89.91-.33.53,1,.48.39.69.39.11-.11.96.94,1.44.61-.05v-.59l.39.16.33-.48.33.27.33-.48.72.11.94-.59-.11-.32,1-.32-.11,1.17.28.64-1.05.59.06.64-.22.27.39.43.83-.69.33.21h0l.39.16-.06.53.94.48-.61.85v.91l-.33.48,1.16-.05.61.43-.22.8.28.48.61.21.94,1.33.44.11-.94,2.72.39.37-.17.32.28.64.5.05.61.96-1.44,1.28.11.43.39-.05.55.48-.22.69.61.27v.69l.89.91h0l.11.43.66.64.28.8-1.44.11-.61-.53-.28-.75-1.72.16-.17-.37-.44-.21-.66.37-.77.05-.28-.53-.28-.21-.28.16-.5-.59-.66.05-.06.27-.28-.05-.44.48-1,.05-.72.53-.66.05-.17.37-.66-.32-.77.32-.5.96-.5.27.28.69-.33.48.22.21-.61-.32-.33.21.11.48h.55l-.06.85-.5-.32v.69l-.66.8.61.75-.11.32.55.27.06.59-.61.27.39.48h.5l.11.37-.11.27-1.38.8-1.16.27-.22.32h0l.11.27h0l-.39-.16-.39-.69-.28.48-.83.05.44-.43-.06-.32-.55.59-.61-.53-.39.11-.66-.37-.55.05-.22-.59-.61-.21-.22-.32.55-.43-.06-1.17-.89-.69-.5-.16-.22.16-.28-.48.11-.48-.22.21-.28-.16-.61-1.12-.55.32-.44-.32-.06-.43-.44.32h0l-.66-.75-1.16-.53-.11-.64.33-.75-.44-.21v-.75l.5-.37-.11-.16-.5.16.22-.43-.39-.37-.39.32v-.37l-.22.27-.06-.27-.28.11-.28-.48-.39.37.22-.32-.77-1.12-.17-.64-.06.32-.5.16.22.64-.5.16v.32l-1.44.16-.06-.48-.39-.27.22-.69-1.77-3.04-.94-2.24.55.05-.89-1.76-1.27-.59-1.11-.91-.44-.21-.61.16-.22-.21.94-1.12-.5-.27v-.64l1.33-.53,1.22-1.39,1-.48-.94-1.23.39-.96Z"/>
  <path id="IN-HR" class="cls-1" d="M100.13,83.48l.44-.32.06.43.44.32.55-.32.61,1.12.28.16.22-.21-.11.48.28.48.22-.16.5.16.89.69.06,1.17-.55.43.22.32.61.21.22.59.55-.05.66.37.39-.11.61.53.55-.59.06.32-.44.43.83-.05.28-.48.39.69.39.16h0l.22.16-.28.75-.5.37-.61,1.23-.55.27-.28.64.17.16-1.66.75-.11.59-.94,1.23-.33,1.44-.39.27.33.85-.66,1.33.28.64-.28.27.61,1.17-.17.43.22.27-.33.16.06.32.39.16-.28.8.17.37-.22.21.17.53-.22.96,1.05,1.28-.28.64.33.64-.44.16.06.32h0l-.55.32-.11-.32-.61-.27-.5.59-1.05.21.17,1.49-.44.64.17.27h-.66l-.28.59h-.22l.06.43.5.59,1.05-.21.44.16v-.37l.5.37.28-.05.39.32.11.64.55.43.89-.27-.17-.43.22-.27,1.11-.32h0l1.6,1.23.22.69-.33.27.39.37-.06.32-.28.16.83.27-.28.21.06.37-.33-.11.06.32.61.05-.55.27-.06.8-.17-.11-.11.27.11.53.66.64-.28.32.33.11-.22.32h-.61l-.11.59-.55-.16v.48h-.83l-.72.69h0l-.17-.11-.33.37-.44-.48-.28.48.17-.32-.33-.11v.32l-.28.21-1-.53-.22.53.55.16.11.32-1-.05-.28,1.07-.44-.21-.39.21-.28-.53h.39l-.33-.37.22-1.28h.28l.17-1.07-.22-.05v-.91l.5-1.87-1.27-1.07-.55.21-.11.69-1.6.75.11.96-.72.11-.72.48v-.85l-1-.16.5-.21-.55-.37.17-.21.44.05-.33-.59-1.11.21-.5-.48h-.66l.89.64-.66.37.66.32-.17.48-.5.11-.17-.43-.33-.16-.83.16.44.37-.66.43.28.32-.17.75.39.21-.06.43.33.27-.61.43-1-.75-.44.27-1-.21.17-.59-.55-.11-.06-.21.17-.21.28.16.28-.59-.33-.21.39-.11-.22-.27.44-.05-.06-.21.33-.27-.22-.21-.39.48-.06-.37-.55-.16,1.05-1.01.44.05v.32l.33-.16-.55-.59.11-.27-.5-.21.11-.48-.72-.48-.39-.64-.39-.32-1.38-.16.11-.64-1.72-1.12-.11-.69-.72-.16-.33-1.71-.33-.48.17-.64-.55-1.12.55-.64-.06-.43-.89-.05-.06-.64-.55-.05.17-.75-.39-.16.44-.59-.06-.96-.44.11-.17.37-.33-.11.06-.75-1.11.75-.5-.43-.83.53-.33-.05-.44-.69-.55.21-.44-.11-.28-1.07-1-.48-1,.64-1.22-.21-.11.53-.55.05v-.43l-.44-.75-.33-.11v-.32l.17-.21.44.11.39-.91-.55-.48.44-2.45-.22-.21-.72.37-.61-.05-.06-.59,1-1.01-.22-.48-.33-.05.17-.48h0l1.49.48-.06-.21.61-.59.39.11.89-.37.55.43.39-.11.06.37.33-.11.89,1.17.89-.27.22-.48.22.53-.28.32.28.32-.22.27.72.32v-.48l.33-.27.55,1.12-.44.32v.48l-.44.32.17.43.55.32v.8l.83-.27.11-.27-.28-.27.44-.8.39.16-.17-.43.5-.21.77-1.23.77.64.5-.05.17.32.5-.05.17-.32.83.21.11-.69.77-.21.28.21.39-.05.61.85,1,.21.61-.32.22.11.5-.75.44.11,1.44-.96-.66-.27-.22-.53.44-.21-.17-.96.28-.16-.22-.16.66-.85-.72-.37h.22l-.11-.32.55.53.83.16.28-.27-.28-.27.72.27.11-.37-.22-.32.33-.27.5,1.33.44.05.11.27.61-.27.28.32.28-.05.28-.32.17-1.28-.39-.11.11-.21-.33-.32-.61.37.17-.48.72-.05.77-.69.44-.11.28-.32-.33-.05-.11-.37.66-.59.61.37.28-.27.55.64v.32l.55-.37-.44-.69v-.59l.39-.43-.39-.27.33-.75-.61-.53.06-.48-.33.32-.17-.37h0l.11-1.01h0l.22-.37-.22-.53-.66-.59-.22-.75Z"/>
  <path id="IN-JH" class="cls-1" d="M178.04,164.17l2.55.27,1.77-.32.72-.16.72-1.12.61.32.72,1.6.33-.27.06-.43.39.37-.06-.43.17-.11.33.27.22-.21.28.27.28-.27-.11-.16h.28l.39.8-.39.27v.37l.44.27-.17.11.22.32.55.05.44.37-.06.32.44-.11.44.64.39-.64-.06-.43.5-.11.06-.37,1,.21.22-.75,1.33-.91.44.21v.75l.55-.11.22,1.12.83-.05.28-.43.72-.05.28-.32-.11.64.28.11.94-.64-.22-.43,1.49-.43v-.37l2.38-.32.39.32.22-.48h.39l.11-.48,1,.27-.17-1.28.55-.32.44-1.33.44.27h1.16l.83.85,1.16-.59-.11.48.55-.05.44.48.11,1.23.72.21.28-.32.55.43.66-.11-.22.32.11.59-.39.59.83.21.77.8.44.11.17-.64.28-.05.22-1.12.5-.21.66-.85.77.53.72-.16.22-.53h.28l.33.32-.06.37.44-.05.22.21.28-.21.39.37-.17-.59.39-.69,1.38.43.55-2.4-.22-.27.44-.43.44-.05.06-.32-.11-1.71.77-.8.44-.21.44.21.39-1.65.55.21.28-.27.94.43v-.59l.28-.27-.17-.43.66.16.11-.59.39-.21.33.48h.89l.28.64.89.11.06.32h0l-.11,1.6,1.16.8,1.05,1.23.06.43-1,.53.11.37h-.33l.11.37-.28.37h-.22v-.32l-.22.27.28.32.72.21-.17.59.33.21-.33.37.22.16h-.33l.44.21-.28.37-.44.16-.89-.37.44.43-.11.64.11-.27.17.21-.44.96.28.11-.61,1.28-.55.16-.33.53-.55.05v.37l.61.32-.06.43-1.38-.05.44.32-.44.27.06.27-.94-.37v.8l.22.16-.33.32-.55.05.28.32-1.16-.32-.33.16-.17-.11.22-.32-1.11-.11.28.91.33.11.06.69-.28.32-.28-.43-.06,1.01-.28-.05-.33-.11.06-.16-.77-.16.39.59-.22.32h-.28l-1.83-.85-.33.27-.5-.43-.22.21-.06.21-.61.43-.33-.27.33.85-.33.91-.61.11-.06-.21h-.44l-1.16.27-.72.53h-1.05v.27l-.66.32-.28.48-.06.59.22.16-.83.48.17.21-.17.11-.28-.27-.39.27-.22-.21.17-.43-.22.16-.89-.21v-1.17l-1.11-.21-.44.37.44.69-1.22.48-.89-.21-.06.75.39.48-.33.05.11.48-.61.75.06.85h.28l.66.8,1.44-.16.11.43,1.05.32.17.53.72.59,1-.27,1.11.48.28-.27.94.05.17.27.33-.27-.28.53-.39.11-.17-.16-.44.32.33.32-.33.43-.17,1.01,1.05.91.39-.21.89.59.39,1.17,1.27.05.44.91-.11.32h-.5l.22.59.94.37-.17.85.66.37v.53l-.83.05-.06-.16v.32l-.11.32h-.72s-.5-.05-.5-.05h0l-.83-.21-.06-.32-.61-.16-.22-.32h-.55l-.39-.53-.72.21-.06.27-.94-.53-.83-1.23-1.99-.48-.77-.96-.17.53-.61.27-.17.53.66.37.17.59-.33.43.33.11-.17.21.39.05-.83.75.66.69-.28.91-.66,1.07-.33.16-.06.48-1.66-.27.33-1.07h.5l-.33-.43-1.38.75-.44-.48-.61.21-.61-.16-1.66-.85-.39.05-.06.43-.39-.05-.28.21-.77,1.28-.22-.53-.44-.32v.27l-.17-.27-.44.05-.28-.37-.61-.16-.5.37-.28-.05.5-.32.55-1.92.5-.21v-.27h-.28l.06-.32-.22-.11-.11-1.55-1.27.48-.11-.16-.61.37-.22-.32-.5.21-.28-.27-.66.05-.11.32-2.49-.05-.55.16v.27l-.33.05-.28.37-1.6.16-.5-.43h-.61l-.5-.37-.22-.85-1.55-.59h0l.06-.59.89-.8h.83l.83-.43.06-.8.33-.32h.33l.5-1.17.44-.05.22-.91-.22-.43-1.05.16-.06-.32-.61.16-.33-.59-.5.75-.22-1.44-1.11-.69.44-2.35-.33-.53-.44.27-.5-.32.06-.91.61-1.07-.17-1.07-.77.11-.06.75-1.88-.43-.72-1.01.17-.91-.39-.8-1.55-.53.17-.27-.39-.16-.44-1.6-.66-.16-.28-.48-1.16-.21h0l.89-2.03-.28-.59.89-.64-.28-.48-.33-.05-.22-.59.11-.53,1.16-.37Z"/>
  <path id="IN-JK" class="cls-1" d="M78.05,1.09l.66.75,1.33-.05.94-.05.83-.64.89-.32.89.43.94,1.33,1.11,1.55,1.44,1.6.61,1.17,1.88,1.17,1.83.85,1.55,1.39,1.83.59,1.44,1.44.89.75,1.49.16,1.27,1.33.06.96-.28.8.39,1.01.66.96,1.49.43h1.83l2.05.59,1.22,1.07.5,1.39.55.96,1.94.21,2.21-.96,1.94-.48h1.55l1.11-1.71,1.27-1.07,1.49-.32,1.22-.48,1.11-.8,1.94-.16,1.6.48,1,.53.66-.37v-1.39l.61-.69,1-.27,1.38,1.07.72.8.89.21,1.72.37,1.33.37,1.11-.48.77-.27.72,1.12.66,1.07.94.48,1.16.8.33.85-.28.91.17.96-.06.69-.5.91-.06.64-.55.75-.11.8.06,1.39-.44,1.07-.44,1.01-.33.75-.22,1.17-.83.43-.89.37-1.16.53v1.07l-.44.69-1.05-.05-1.16.05-.55.48.11.59.5.85.28,1.12-.5,2.03-1.16,1.23-.66.27-1.11-.27-1.22-.43-.77.32-1.11.21-.66.21-.28.64.22.96.39.85.5.75.77,1.23-.22.75-.61.48-.83.32-.11.75.11.85-.28.37,1.72,1.55.11.91,1.27.48,2.6.16.06.43-.72,1.55-.06.69,1.11,1.17.28,1.17.72.59.33,1.17-.22.85-1.11.27-1.55,1.33-.61-.48-.66.16-.89.64-.28,1.23-.66-.16-.83.53-.72-.32-1.55-1.44-.22-1.23.17-.43-.39-1.28-1.05.64-.33.59-.94-.05-.66.53-.39-.11-.44.32v.59l-.33-.21-.83.69-.39-.43.22-.27-.06-.64,1.05-.59-.28-.64.11-1.17-1,.32.11.32-.94.59-.72-.11-.33.48-.33-.27-.33.48-.39-.16v.59l-.61.05-.94-1.44.11-.96-.39-.11-.39-.69-1-.48.33-.53-.89-.91-.55-.21-.11.37-.83.21-.72.75h-.39l-.33.32-.77-.32-.33.8-.33.05-.28-.48-.55-.32-.22.16-.11-.43-.61-.48-.33.21-.11-.91-.72.11-.44-.37-.44.16-.94-.59-.44-1.07h-.39l-.5-.59.28-1.23-.28.11-.28-.27-.28.11-.28.96-1.22.21-.5-.59-.39-.05-.89.37-.89-.11-1.33,1.12-.44.96-1.66.37-.11.48-1.6,1.12-.89-.59h-.66l-.17.8.94.75.44.75-.17.85.33.64-.61.91-.77,1.17-.66.16-.39.75-2.1.91-.33.96-.11-.43-.28-.11.06-.32-.66.21-1.05-.16-1.49-.91-.06-.27-.55.11-.66-.85-.55-.16-.66.59-1.66-.64-1.6.16-.66-1.65.39-.64-.28-.8.55-1.6-.66.21-.33.85-.94.21-.66.37-1.6-.16-.77-.53-1.16-.53-.89-.8-1.38-.48-1.16-.8h-1.77l-.39-.8-.61-.53-.77-.64.33-1.33-.5-.96-.17-1.65.61-.69-.44-1.71.28-.64.06-.8-.83-.8.06-.75.55-.64-.44-1.65-.83-.8.06-1.55-.17-1.23-.55-1.33.22-1.33v-.91l.72-.75,1.22-.32.94-.37.06-1.01.72-1.23.77-.11,1.88-.05.66-.48.44-1.6.5-1.01v-1.07l-1-.96-1.38-.59-1.11-.32-.66-.48-.39-.8.22-.85.77-.48.33-.64-.55-1.17-1.16.05-1.33-.16-1.11-.32-1.94-.16-1.05-.91-.5-.96-.39-1.39-1.49-.69-1.72-.37-1.11.69-1.22.05-.66-.53-.06-1.17.28-.59-.28-.85.22-.85.55-1.23,1.33-.91,1.38-1.12,1.27-1.33,1.22-1.49.5-1.49,1.11-.69,1.72.16,2.16.21,2.43.11,1.16-.27-1.05-1.12-.94-.48.44-.64,1.11-.16,1,.85,1.44.32.72-.85,1-.21.94-.43.77-.37,1.22-.59.83-.64,1.22-.11.94.16,1.38.43Z"/>
  <path id="IN-KA" class="cls-1" d="M69.47,270.03l-.33-.21.44-.11-.06-.48.83-.43.28-.37.28.53h.5l.83-.37.28-.8-.5-.11.33-.48.22.48h.22l-.22-.59.89-1.6-.39-.21-.55.27-.28-.21.77-.69.61.27-.06-.69.33-.48-.11-.48-.94-.32v-.27l-.77-.11-.22.27.17-.27-.28-.37.06-.64.22-.11.22.32.11-.32-.33-.05-.06-.59-.5-.05.06-.53-.39.32-.17-.37.39-.11-.11-.48.44.48.17-.59.44-.05-.06.21.33.11.17-.59.77-.32.06-.64.22.37.61-.05.28.96.72-.27.06-.37.55.05-.33-.37.39-.43v-.48l1.83-.64h.77l-.11-1.01.61-.27.06-.32-.44-.21.11-.16h1.05v.16l.66-.27.61.85h.55l-.06.37h.39l.77-.37.06-.96h.66l.55-.27.44.16.44-.27.28.48.89-.27.06-.53.39.05v.37l.39.21.33-.11v-.91h-.33l.39-.32v-.37l-.61-.91.39-.43v-.64l-.61-.48.06-.48-.33-.11-.06-.37.44-.11.22-1.01.5.21.17.53.55-.11.77.59.28-.64.44.43.28-.37.06.75.44.32,1.44-.37.28.27.5-.43.5.32.17.53-.06-.59.83-.32.39.53.77-.21.11.48h.33l.33-.69-.55-.05.11-.69h-.44l-.06-.43.5-.27h-.39l.28-.32-.28-.21-.11-.59,1-.11.17-.48.72-.21-.06-.64h.44v-.53h.55v.69l.5-.8.55.96.33.11.11-.53.33-.11-.11-.53.55-.05.28-.48-.61-.37.06-.48.72.37,1.33-.53v-1.39l.44-.05-.11-.43.22-.27-.55-.21.39-.8.39-.05.44.32.11-.27.28.37h.61l-.17-.48.61-.27.22-.75.39.05-.11-.43.55-.69-.06-.43.89-.53.28.27.33-.21v.53l.44.16-.61.91.89.05.33.53.5-.21v-.32l.44.16h0l.61.16-.44.91.39.59.06.64-.61.53.55.53.61.21.11.27-.11.27-.22-.16-.06.64-.39-.05.11.43-.28-.05-.22.8-.28-.11-.17.32-.06.21.72.21-.06.21-1.27.64-.11,1.28.55.16.11.32.28-.37.22.27.5-.16v.37l1.11.32v.37l-.44-.11.06-.27-.17.32-.33.05v.32l-.44-.11v.27l-.72.05.28.27-.11.37-.33.21-.55-.21-.22.96.22.16-.89.64.22.11-.44.53,1.16.69.44,1.12-.55,1.17.22,1.49-.39-.05-.17.8.5.05v.37l-.55.16.17.32.44-.11-.06.75-.83.21.28.53-.44.11-.17.32-.83-.11-.06.21-.66.05.55.75.66.27.77.21.94-.16,1.11.43v.59l-.28-.11-.39.43h-.11s-.17.21-.17.21v.32h.28l-.33.75.06.48.28.16-.22.85.22.32v.96h0l-3.04-.43-1.22.21-.89.48-.5.8.5.11-.22,1.01.94.85-.11.37-.39-.32-.61.21-.06,1.55-.61-.05v.16l.66.64.39,1.33.55-.05.06.43.39.05.17.32-.5.43.44.32v.53l-.28.05.28.27-.89,1.39-.44-.05.06-.27h-.55l-.22.21-1.22-.21-.94-.69-.28.21.11.64-.22.53.72.21.44-.16-.17,1.87-.77.27.22.53-.44,1.55.44.85.33.05.5.64,1.22-.11-.33.37v.53l-.33-.16-.33.27-.06.48.83.59-.28.27.17.37h1.27l.28.37.33-.05.06-.85.44-.59.94.32.55-.21v.64l.94.05-.06.43.33.43.39-.21-.5-.96.11-.32.66.16.17.43h.5l.06,1.39-1.27-.16-.17.43-.33.05-.06.32.5-.27.06.16-.77.91.66.16-.11.43h.66l-.28.37.22.32-.39.32v-.21h-.5l.06-1.01-.44-.48-1.94.37-.28-.59-1.11-.11-.17-.53.11-.85-.89-.21-.06.27-.55.05-.11.32.5.05.55.69-.5.48,1.22,1.12.06.32-.28.05-.55.91.28.8.22.11.17-.43.39.37.39-.27.83.05-.06-.75-.44-.32.44-.11-.06-.48.22-.21v.64l.28-.27.06.21.28-.37.17.64.66-.21.17.37.44-.21.77.11-.17.43h.55l-.11,1.39.39-.05.06-.32.28.27.11-.69.44.32.44-.32.28.16.17-.11-.33-.21.44-.21h.22l-.06.27.39-.11.17.32.06-.64.77-.27-.06-.27.61-.27-.22-.53.11-.32.77.05.28.37.61-.64.11.64-.39.16v.69h.22l.22-.48.61.11.06-.37.83.53.06.75-.39.48.28.27-.06.32-.5-.05-.06.27.28.37.89-.16.06.27.39.11-.11.69.5-.37,1.88.11-.39,2.56.5.27-.33.16.28.21.39-.16.11.21.39-.11.55.59.39-.48.28.43-.11.64-.33.21.33.37-.72.43.22.27-.28.16.06.32-.61.27.06.8-.39-.05.17.8-.66.05-.39-.37-.5.91h-.72l-.22,1.07h0l-1.16-.21-.83-.85-.39-.05-.17.59h-.22l-.44-.64-.22.43-.17-.11.28-.37-.22-.27-1.55.53.17.53-.77,1.39-.33-.11-.28.27-.28-.27-.72.21.11.43-.33.75.11.59.33.11-.33.37.55-.11-.06.8-.17.64-.72.8-.83.27-.06.69,3.04.37.5.69-.94,1.07-.33.8-2.05.05-.11.64-.28-.16.06.59-.44,1.01-.72-.11-.39.21-.5-.43-.5-.05-.17.21-1.44.21.06.59-.44-.16-.17-.59-.39.16.11-.21-.33-.21h-.39l-.17.43-.72-.21-.83,1.6.28.48-.17.32-.22-.27-.83-.16h-2.16l-.22-.69-.44-.32-.61.48-.33-.05h0l-.33-.48.28-.16-.11-.43-.83.27-.72-.85-.61.05-.39-.75-.89.16v-1.39l-1.33.53-1.38-.21-.61-.48-.28-1.01-.94.11-.17-.43-.44.11-.33-.59-.66-.11-1.11-1.55h-.72v-.91l-.66-.48v-.53l.66-.11-.11-.43-.83.48-.06-.37-.61-.32-.06-.53.61-.27-.61-.32-.61.59-.22-.69-.44.16-.17-.16.11-.48-.77-.27-.06.37-.39.05v-.64l-.5.05.06-.16-.33-.11.28-.37-.17-.32-1.44.43h0l-.55-1.12-1.44-5.71-.28-3.31-.72-2.67-.44-.91-.44-.21-.33-.64-.33-1.87-.33-.48-1-3.2.44-.32-.33-.27-.11.37h-.55l-.17-.96-.28-.27.17-.16-.22-.85-.39-.37-.33.37-1.27-.96.33-.05.11-.48h-.22l-.17-.59h0l.5-.27.44.11-.06-.48.44.32.66-.53-.11-.27.5-.59-.28-.64.11-.53.39-.48-.17-.48-.55-.37,1-.43-.17-.85-.55-.27v-.64l-.28-.53.33-.43-.39-.48.17-.53-.17-.53-.28-.16-.22.21-.28-.37-.17.32-.66.21h0Z"/>
  <path id="IN-KL" class="cls-1" d="M78.1,303.41l1.44-.43.17.32-.28.37.33.11-.06.16.5-.05v.64l.39-.05.06-.37.77.27-.11.48.17.16.5-.11.22.69.61-.59.61.32-.61.27.06.53.61.32.06.37.83-.48.11.43-.66.11v.53l.66.48v.91h.72l1.11,1.55.66.11.33.59.44-.11.17.43.94-.11.28,1.01.61.48,1.38.21,1.33-.53v1.39l.89-.16.39.75.61-.05.72.85.83-.27.11.43-.28.16.33.48h0v.43h-.5l-.33.43-.61.21-.33-.32-.5.32.17,1.17.44-.16.5.32.17-.16.89.27.44.59.72.37.33-.05v.69l-1.11.69.06.59.39-.27,1.55.21.83-.53.33.27-.39.75.55.27v.85l.66.05-1,.11-.66,1.23,1.94.69.28.64.55.11.11.32-.5,1.07.22.53-.77.05.28.48-.28,1.92.39.64-.22.75.22.21.28-.16v.27l.5.48.77.16.77-.43.17-.43,1.27-.69.66.05-.11.37.44.59-.06.37.39.16-.22,1.01-.83.32.72.8.11.75-.28.11-.39.85.28.21-.17.37.28.32-.28.11v.64l-.22.05-.44,1.23h.5l.66.43.55-.32.22.32.17-.37.11.8.55.32-.22.53-.5.21-.28,1.17h-.33l-.22.43v.91l-.33.32.17.43-.66.64-.17.59-.55.27.55.75v.37h.28l.44.64-.17,1.01-.44.48-.22-.05,1.27,2.24-.22.43-.72.11.28.64-.89.69.28.75-.44-.11-.28.27h0l-1.38-.96-3.98-5.12-1-.75-.33-1.33-2.1-4.48-1.16-6.24.17-.05.5.91.77.8v1.39l.33.21-.39,1.65.28.21v-.21l1.38-.05-1-.37.17-.53-.11-.43-.22.05.11-.59-.39-.05-.06-1.81-.44-.64-.17.05.11.32-.17-.05-.77-1.6.17-.59-.66-.75.44,1.87-.22.05-1.44-4.59-2.21-4.69-.61-2.56-1.44-3.84-.61-1.07-.77-.32-.89-2.35-1.6-1.76-.55-.27-1.05-1.65-.39-.21-.33.21-.22-1.01-2.43-4.64-1.11-2.88h0Z"/>
  <path id="IN-LD" class="cls-1" d="M57.3,353.97v.27l-.22.21h-.22l-.17-.05v-.05l.06.05h.22l.17-.11.17-.32h0ZM64.05,333.65l-.06.48-.06.05-.06-.16h.06l.06-.05.06-.32ZM48.72,333.27l.06.11h-.06v-.11ZM64.16,333.06l.06.16-.06.16v-.32ZM52.31,328.26l.11.05v.11l-.39.21.28-.37ZM64.32,325.49h0l.28.05-.33.11-.11-.05v-.11h.17ZM46.89,325.49l.17-.32.06-.27.06-.05h.06l-.33.64h0ZM48.28,324.05h0v.11h-.06v-.11h.06ZM48.66,323.99l-.17.11v-.05l.17-.05ZM53.37,321.91v.11l-.17.21-.06-.05v-.11l.22-.16ZM46.12,321.01h0ZM54.03,320.47l-.11.48-.22.43.17-.69.17-.21ZM56.47,317.76l.11.11.06.16-.06.05-.06-.27-.06-.05h0ZM47.06,316.58l.06.05-.06-.05h0ZM53.14,315.41l.06.16-.11.11.06-.27h0Z"/>
  <path id="IN-MH" class="cls-1" d="M69.75,195.53l.61.32,1.05-.11.17-.37.61-.16.39-.48.66-.05.06.69.5.21.39.53-.28,1.23.11.96.5.11.06.43,2.71.85,1.27-.21,1.83.8.66,1.28,1.22.59.94-.05v.32l.66-.16.44.27.83-.16.94.27.72-.27.77.16,2.49-.21.94.05,1,.48.55-.27.72,1.39-.17.27.33.59-.06.21-.61.05.66.96,1.05-.11.22.21h1.11l.89-.43.39-.96,1.55.05.44-1.07-.44-.64,1.83-1.6.11-.27-.33-.37.28-.21.11-.69.44.05.22-.27.55.16,1.99-1.49,1,.11.17-.16.44.43.22-.27.66-.05.06-.48,2.21-.11.77.85.33.91v.8l.44.21-.44.16-1.27-.32-.44.27.22.75.33.21.22.96,1.11.16.22-.05-.06-.32h.55l.17.27.28-.32.17.48.33-.05.17-.27.5-.05.06-.27.94.43.66-.11,2.66-1.33.11-.75,1-.16-.06-.27.44.27.39-.21.28.16.22-.48.5.21.11,1.23.89-.32.66.16.22.32,1.55.27.33-.37.28.32.17-.27,1.11.05.17-.21.44.16.11-.32-.44-.48.28-.05-.17-.37.94-.32.17.21.89.05.66-.75.83.11.11-.85,1.38.53.55.05.22-.21.83.21.55,1.55,1.27-.16,1-.53,1.44.85.66.05.22-.37.66.27.83-.21.61-.64.83-.32.83.16,1.27,1.17.5,1.01-.28.37.17.37.44.05.11-.37.44.05,1.27.85.72-.05h0l.17.37-.44.59-2.05.91-.28.91.17.75-.28.32.39.91h1l.06,2.03.39.96-.83.37-.28.43.33.37.66-.32.66.11-.44,2.51.39.75-.89.32-.39.43-1.49.32.33.64-.33.32.11.21,1.22.05.5.32.06.53v.96l-.28.69-.44.05-.44-.32-.44.21v.32l.89.11.17.37-.77.69-.39-.05-.06.27h.66l.28.27-.11-.64.83.05-.06.53,1.44.96-.11.96.72.05.55.48.72.05.22.37.39.11.17.64-1.22.48.66.8-1.11.85-.72.05-.17-.53-.72.21-.5-1.12-1.05.8-.44.85-.61.27.06.59-.72.59-.06.8-.61,1.01v.69l.94,1.23-.83.69-.39.05.28.48h0l-.77.27-.17.27-.33-.27-.55.21-1.16-1.07-.94-.21-.44-.53.5-.32-.06-1.92-.22-.32-.66.16v-.8l1-.8-.28-.64.5-.85.11-1.23-.39-.75-1.27-.85-.5-.69-.5-.11-1.16.32-.5.85-.55-.21-.11-.32-.83.59-1.16-.85-.61.05-.11-.27-.72-.27-.11,1.01-.33.43.17.27-.5.11-.89-.8-1-.16-.28-.27-.44.11.28-.37-.11-.75-.61-.21-.66.16-.17-1.23-.72-.27-.77.16-1.33-.59-.89-.05-.39.32-.22-.27-.89-.21-.17-.53-.55-.05-.22-.37-.28.8.5.11.33.69-.28.8-.66.27-.17.32.5.69v.37l-.39.16.33,1.23-1.49.53.17.96-.33,1.12-1-.21-.39.16-.06-.32-1.11-.85-1,.48v.21l.5.21-.44.16-.22.69.11.21-.33.53.22.53-.55-.16-.06.59-.39-.11-.06.37.11.53h.55l-.06.37.5-.05-.17.48.5.05.72,1.01-1.22.16-.61,1.44-.33-.27-.28.37.06,1.44-.94.32-.11-.32-.61.05.06.85-.28-.11-.33.27.44.21-.66.21.33.11-.39.8.55.37-.22.32h0l-.44-.16v.32l-.5.21-.33-.53-.89-.05.61-.91-.44-.16v-.53l-.33.21-.28-.27-.89.53.06.43-.55.69.11.43-.39-.05-.22.75-.61.27.17.48h-.61l-.28-.37-.11.27-.44-.32-.39.05-.39.8.55.21-.22.27.11.43-.44.05v1.39l-1.33.53-.72-.37-.06.48.61.37-.28.48-.55.05.11.53-.33.11-.11.53-.33-.11-.55-.96-.5.8v-.69h-.55v.53h-.44l.06.64-.72.21-.17.48-1,.11.11.59.28.21-.28.32h.39l-.5.27.06.43h.44l-.11.69.55.05-.33.69h-.33l-.11-.48-.77.21-.39-.53-.83.32.06.59-.17-.53-.5-.32-.5.43-.28-.27-1.44.37-.44-.32-.06-.75-.28.37-.44-.43-.28.64-.77-.59-.55.11-.17-.53-.5-.21-.22,1.01-.44.11.06.37.33.11-.06.48.61.48v.64l-.39.43.61.91v.37l-.39.32h.33v.91l-.33.11-.39-.21v-.37l-.39-.05-.06.53-.89.27-.28-.48-.44.27-.44-.16-.55.27h-.66l-.06.96-.77.37h-.39l.06-.37h-.55l-.61-.85-.66.27v-.16h-1.05l-.11.16.44.21-.06.32-.61.27.11,1.01h-.77l-1.83.64v.48l-.39.43.33.37-.55-.05-.06.37-.72.27-.28-.96-.61.05-.22-.37-.06.64-.77.32-.17.59-.33-.11.06-.21-.44.05-.17.59-.44-.48.11.48-.44-.27.17.21.39-.32-.06.53.5.05.06.59.33.05-.11.32-.22-.32-.22.11-.06.64.28.37-.17.27.22-.27.77.11v.27l.94.32.11.48-.33.48.06.69-.61-.27-.77.69.28.21.55-.27.39.21-.89,1.6.22.59h-.22l-.22-.48-.33.48.5.11-.28.8-.83.37h-.5l-.28-.53-.28.37-.83.43.06.48-.44.11.33.21h0l-1.16.53-.33-.05-.33-.37-.28-1.12-.72-.11-.22-.53-.39.69-1.77.16h0l-.39-.27.28-.11-1-1.81-.94-.27-.33-1.12-.33-.21.17-.21-.39-1.49-.55-1.87h-.22l.44-.48-.44.11v-.48l-.55-.85v-.48l.28-.11-.28-.43.28-.43-.22-.05-.11-1.92-.39-1.01.22-1.12h-.28l.17-.32-.33-.16.5-.59-.39-.43-.5-1.81-.39-.37.39-.05.06.27.17-.32-.44-.91-.44-.27.44-.37-.22-.05v-.75l-.55-.59.39-.32-.5-.64-.17-.69.22-.27-.55-1.07-.17-1.07-.17.05-.39-.64.11-.48-.55-.85.17-.27-.39-.64.17-.75-.66-.32.06-.69h.33l.22.43,1,.21-.17.43.39.43-.11-.96-.28-.48-.72-.05-.5-.75-.44-.21.17-.37-.33-1.01.39-.8-.83-1.81.17-1.28.55.16.28-.43.33.43.17-.21.06-.64-.72.16-.22-.59.55-.05-.22-.43.17-.32.28.16.61-.43-.33-.05-.11-.69h-.33l-.11.37-.55.43-.55-.16-.22.91-.44.37.17-.59-.39-.11.28-.91.11.11.11-.27-.28-.05.11-.59-.55-.85v-1.33l.22-.64-.5-.53-.17-1.01.39-.32.06-.43-.22.27-.55-.43-.06-.69h.28l-.61-2.35-.44-.53v-.21l.33-.11-.22-.8.61-.48-.11-1.17.33-.8h0l.72.16v-.27l.39.05v-.48l.44-.48,1.11.16h0l.17.48-.17.48.17.21.33-.27-.11.27.5.53.11-.37.94.16.55.37.33-.8h0l.83-.32.28-.69.5.11.17-.16.06.27.66-.16-.06-1.76-.39-.48.44-.27.83-1.49-.22-.05v-.48l-.44-.16-.44-.59.44-.27.17-.53.33-.11.17.75.44-.27.77.43.33.69.39.21.33-.21.55.11,1.05-.59.06-.64-.28-.32h.5l.28-.43.39.05.33-.21-.06-1.17-.55-1.17.11-.53-1.05-.16-.11-.32.28.53-.39-.53.11-.69-1.05.05-.83-.69.28-.11.28.53.5-.21.66.16.06-.32.94-.05.11-1.12.72.05.66-.43.06-1.28.17.11.94-.32.22-.75.5.43.22-.16,1.11.05.06-.27.22.21.89-.37v-.53l-.28-.27-.39.37-.39-.16-.33.21-.28-.32h-1.33l-2.43.75-.44-1.23-.44-.32,1.16-.27.11-.64-.77-.75.17-.32-.39-.37,3.93-1.76h0Z"/>
  <path id="IN-ML" class="cls-1" d="M251.86,151.64l1.72-.69-1.44-1.65.5-.11.28-.37-.11-.64.72-.27.17-.21-.22-.16,1.33-1.01.72.21,1.66-.37.5-.43.39-.05.39.32.55-.32.66.69-.28.75.83-.8.55.27-.28.32.22.16.72-.64.72-.11-.06.53.44.11.39-.53.33.16.55-.16.44.48-.06-.37.33-.05.28.75h.72l-.33.8.55-.32.33-.05-.33.32.17.11,1.55-.48-.17,1.01.17.59.39.05.61-.27.66-1.12,1-.21.28.16.94-.37.06-.21-.28.27-.39-.05.66-.64-.33.05.89-1.39.66.11.06.69-.33.32.66.43.61-.59.11-1.33,1-.75.66.27-.06.59.61.64.77-.53.72.11.94-.16.5-.43.72.21.66-.21-1.66,1.65.11.43.72.05-.55.48-.33.69.11,1.76.77-.53,1.22-.11.61-.37.55.27v.48l.39.11.44.75.66.16.17.64.33.05.61-.43-.11.69-.89.85.33-.05.11.69.5-.21.06.32.17-.11.5.53.22-.05.28.59.28.05.11.59-.33.43.44.37-1.6.53-.5.75-1.11-.27.22.48-.66-.11-.22.85-.44.05h0l-.89-.27v-.32l-1.33-.21-1.94-1.17-3.32.27-.33-.16-.11.37-.44-.11-.72.43-.44-.27.11-.37-1.66.53-.61-.43-.89-.05-.77-.37-2.21.11-2.49.53-.94-.32-.55.37-.55-.21-2.05-.05-.72.37-1.27-.59-2.6-.43-1.66-.96-1.6.11.17-.16-.28-.91.39-1.12h0l.28-.16-.44-.91Z"/>
  <path id="IN-MN" class="cls-1" d="M293.64,154.57l.06.37.39.05-.06.37.55-.05.61.59,1-1.97h.28l1.05-1.28-.06-.43h-.44l.06-.48,1.38-.37.83.16.5-.16.06-.32.83.43.06.32.55.11.22-.37.39.05.22.64.83-.16.33.21,1.22-.59.11-.64.5-.37.39.05.77-1.01.28.05-.22.59h.22l-.44.69v.91l.89.59.55.05h0l-.11.53-.5.37-.55,2.13,1.88.96-.06,1.39-.44.59.17.43-.94,1.23-.33,1.49-.72.05-.22,1.01-.77.69-.44,1.01-.28.05v.8l-.28.43.22.27-.66.48v.59l-.77,1.55-.22,1.49-.55,1.28-.28.05-.11,1.01-.44.11-.33-.64-1.66-.69-.55-.11-1.05.32-.66-.96-1.6-.05-.22.53-.44-.27-.55.53-.55-.32-.61-1.28-.72-.21-.22.11.06.43h-.55l-.39.32.11-.43-.22-.32h-.28v.48s-.55-.05-.55-.05l-.28-.43-.55.53-.22-.69-.28.16-.89-.32.55-1.17-.17-.85.39-.75-.28-.05.06-.53-.28-.16h0l.44-.11-.06-1.07.44-.8-.11-.16.55-.11-.39-.16.33-.96-.33-.43.39-.37.06-.85.17-.11.33.37.5-.27v-.53l.39-.27.28-.53-.17-.27.28-.16-.17-.85.22-.37h.44l.39-.59.61-1.87.89-.69Z"/>
  <path id="IN-MP" class="cls-1" d="M116.78,135.53l.61.21.22-.53.77-.11.44.64.44-.11.28.43,1.33.48,1.11-.16.66-.37.11.27.22-.16.28.37h.5l.61.75.44-.11.5.21-.11.43.66-.27.17.91-.28.48.11-.11.06.37h.28l.44.59-.17.59.89.16-.11.32h-.33l-.11.69.66.21-.22.11.11.21-.39.05-.11.48-.17-.21-.33.27.22.43h-.44l-.06.48h-.44l.28.48-.66.21.72.69-.66.53-.17,1.07-.61.43.06.59-.44.11.17.75-.61-.37-.17.16.28.05v.21l-.83.64.77.91-.06.64-1.49.37-.33.37-.44-.27-.33.32-1.11-.21-.33.37-.28-.16-.22.37.17.69-.5.37-.33-.11-.22.69-.39.32.39.48-.28.32.44.16.11.64.5.37-.17.27.72.32-.33.21.28.32h-.55l-.77.53v1.12l-1.88,1.44v.32l.5.53.11.8.55,1.01-.11,1.33-.44.43.55.59-.06.37,1.11.75-.39.69.61.64.66-.27.83-1.17.83.43,1.05,1.39.33.11.39-.21.17.16.17-.21.39.96.28-.37.77-.16.33-.96.66-.64.22-1.07-.89-.32.06-.43.22.21.39-.16-1-1.76-1.22.59-.33-.16-.11-.69.39-.53-.11-1.12.17-.27-.17-.59-1.11-.48-.17-.53-.39-.27.22-1.17-.5-.43-.33-1.97-.83-.43-.5.27-.33-.21.17-.21.33.16.28-.37.11.27.28-.05.17-.27-.17-.43.61.16-.17-.53.33.05.17-.32.28.11.28-.48.39-.05.17.21-.39.32-.17-.21v.37l.61.11.06.32.61-.05-.22-.69.83-.21-.66-.05-.33-.37.06-.48.28.32.83.11.17.16-.39.11.22.16.28-.43-.33-.53.55-.16v-.43l.44-.05.06.21.17-.21.11.37-.28.11.22.48-.39.43.28.21.33-.11.22.8-.55.32-.44-.27h.44l.22-.27-.89.16-.39.32.06.27-.61.21-.11.21.33-.05-.06.37.44.53.39-1.44.61.16.28-.21.22.8-.33.27-.39-.16-.22.37-.17-.11-.06,1.12.89-.69.55.32v-.48l-.28-.16.39-.37.06.37.5.27-.39.48-.06.53.22.05.5-.69.44.37-.17.27.22.43.55-.11-.17-.32.22-.11.28.48.39-.05.06-.32-.33-.11.28-.16.28.11v.37l.5-.16.11-.21-.39-.59-.06-.64.66.59.17-.16-.22-.21.11-.53-.33.16-.28-.37-.33.21v-.48l.39-.37.61.11-.17.48.28.37.17-.37.55.43.5-.32.39.16h-.39l-.39.53.17.16-.39.05-.28.48.17.69.17-.32.17.37.44-.32-.11.48.33.16.89-1.17.28.37.17-.11-.06.27,1.72-.16,1.27.59-.11-.43.28-.21-.28-1.12.66-.21.11.27.33-.48.61.05.28-.91.72-.16.44.21.77-.53.06-.43.61.16.11-.32.61.53-.06,1.23.83.64.22-.05.28.85-.83.37-1,1.44.55.32.5-.27.28.21-.17-.59.89-.32.33.48h.28l.06-.53-.28-.16h.39l.39.43.22-.32.5.21-.17-1.01.44.37-.33.21.66.37.28-.11-.06.32.61-.21.55.11v-.27l-.61-.16v-.32l-.28-.16,1.16-.11.33.43.11-1.01.5-.05.33.43-.44.43.06.64-.5.37.28.53-.66.32.17.32.39.11.55-.16h0l.17.11-.06-.21h0l.44-.21.22.59.72-.11-.11-.27h.77l.66.75.33-.8.44.27-.17.05.33-.05-.11-.75.72-.91-.17-.48.28-.75h.44l.11.64v-.59l.22-.11.72.59.44-.11.11.27-.44.05.94.43.28-.37-.39-.37.28-.21.33.11-.17-.53.66-.11.17.32.44.11-.33.27.11.43.17-.27.17.21-.44.27.11.21.61-.21.28.43.61-.05.66.48.44-.11.66.32.17-.21.17.96-.17.48.72.75.55-.27,1.22.75h.55l.44-.37-.22.27.33.27h-.22l-.17.53.5.16-.17-.27h.28v-.21l.22.16.06-.27-.17,1.28.28.05.11-.27.39.21-.06.69.44-.11.94.32-.11-1.07.33-.27.17.37h.83l.11.32,1.49-.59.44.32v.37h.77l-.06.59h.44l.06.59-.61.16-.39-.16.06.53.22.16-.33,1.39.61.16.06,1.01-.17.69-.28.16-.06,1.01-.55-.21-.17.27.61.64.66.05-.28.69.66.21.11.53h0l-.66.48-1.05.16-.06.64-.77.43h-.66l.22.37-.33.11-.66-.32-1.55.11-.83-.21-.33.16-.33-.32.06-.27-.5.43h-1.33l-.5-.53-.55.11-.39-.27-.72.59-.83.16-.72-.37.06-.21-.72-.8-.61.21-.17.64.39.27.11.75.39.21.17.37-.5.75h-.33l-.11.75-.39.16.11.43.33.05v.53l.22.21.33-.48.44.11.5-.53.77.27.28.43,1.05-.27.72,1.44.44-.11v.43l.39.11.61-.27.17.53.33-.05.55.43.06.48-.55.69.11,1.07-.39.48-.55-.16-.5.43-1,.05-.22.43.28,1.01-.94.53-.06.27-1,.21-.11.48.28.8-.44.48.17.75-.28.21-.22-.32-.55.48-.61.21-.11.75-.28.05-.11.32h-1.11l-.44.59h-.5l.11.32-.28-.16-.33.48-.22-.8-.66-.21-.22.53-.33-.21-.66.59-.44-.48-.83.59.06,1.76-.33.59-.77.21-.06,1.17-.5.21.39.21-.06.43-.39.05-.17-.64-.44-.05-.77,1.92-.33.05.22.27-.06,1.6-.22.69-.77-.11-.28.53-.11,1.49.22,1.39-.83,1.71h0l-.72.05-1.27-.85-.44-.05-.11.37-.44-.05-.17-.37.28-.37-.5-1.01-1.27-1.17-.83-.16-.83.32-.61.64-.83.21-.66-.27-.22.37-.66-.05-1.44-.85-1,.53-1.27.16-.55-1.55-.83-.21-.22.21-.55-.05-1.38-.53-.11.85-.83-.11-.66.75-.89-.05-.17-.21-.94.32.17.37-.28.05.44.48-.11.32-.44-.16-.17.21-1.11-.05-.17.27-.28-.32-.33.37-1.55-.27-.22-.32-.66-.16-.89.32-.11-1.23-.5-.21-.22.48-.28-.16-.39.21-.44-.27.06.27-1,.16-.11.75-2.66,1.33-.66.11-.94-.43-.06.27-.5.05-.17.27-.33.05-.17-.48-.28.32-.17-.27h-.55l.06.32-.22.05-1.11-.16-.22-.96-.33-.21-.22-.75.44-.27,1.27.32.44-.16-.44-.21v-.8l-.33-.91-.77-.85-2.21.11-.06.48-.66.05-.22.27-.44-.43-.17.16-1.05-.11-1.99,1.49-.55-.16-.22.27-.44-.05-.11.69-.28.21.33.37-.11.27-1.83,1.6.44.64-.44,1.07-1.55-.05-.39.96-.89.43h-1.11l-.22-.21-1.05.11-.66-.96.61-.05.06-.21-.33-.59.17-.27-.72-1.39-.55.27-1-.48-.94-.05-2.49.21-.77-.16-.72.27-.94-.27-.83.16-.44-.27-.66.16v-.32l-.94.05-1.22-.59-.66-1.28-1.83-.8-1.27.21-2.71-.85-.06-.43-.5-.11-.11-.96.28-1.23-.39-.53-.5-.21-.06-.69-.66.05-.39.48-.61.16-.17.37-1.05.11-.61-.32h0l.11-.37-.66-.37.94-.85-.28-.21-.28.11-.11-1.39-.55-.11.17-.27-.39-.53.17-.91.44-.16.28.48.66.11.17-.53.22.11.33-.48.44.05-.44-.48-.55-.05-.17-.48-.06.43-.28.16-.22-.32-.22.43-.22-.59-.28.05.11-.53-.5.21-.11-.21.39-.53,1,.43,1.27-1.55h1.38l.22-1.07.89-1.55-.33-.8-.61.32-.44-.43-.22-.37.33-.16-.55-1.01h0l.77-.59,1.38.27.39-.53.72-.16.72-.69.55.11.33-.21v-.27l-.61.11.33-.21-.22-.37-.61.16-.89-.48-.22.21-.39-.59.61-.59.06-.53.44-.48.5-.05.55-.48.39.05.61-.59.22.16.5-.27.72-.85.39-.11-.39-.64.39-.64-.39-1.71.17-.75.83-1.17-1.27-2.24.28-.27-.11-.32-.28-.21h-1.33l.33-.43.06-.69.83-1.17-.44.05v-.37l-.44.27-.77-.32.5-.53-.11-.53.5-.16-.06-.32.39-.43-.5-.21.28-1.33,1.11,1.71.55-.05.22-.48.44-.11-.06-.53h.33l-.17-.53-1.05.11-.66-.32-.11.27.06-.75-.39-.91.28-.59.22.48.22-.16.33.27.06.43,1.44.43.17-.27.72-.11-.06-.96.55-.32-.06-.64,2.16.05.06.21-.39.21.22.53-.28.75-.44-.96-.11.16.33.48-.39.43.55.27.17-.21,1.16-.05-.06.37-1.27.64-.33-.48-.61-.05.28-.43-.33.05-.17-.27-.06.32.61.59-.55.32-.22.53.39.59.61-.11,2.16.48,1.49-.37.39.43,1.72-.96.94.43-.11.69.28.21-.22.48.11.21.28-.21.61.53-.11.21.22.21-.39.27.22.21-.06.43-.72.48-.66-.69-.5.59.06.21-.33.05.11.69.33.48.55.11.17.69-.61.32-.33,1.01h.39l.17.37h.55v.43l-.61.16-.22.8-.72.37-.39-.8-.39.43-.61.11-.22-.37-.61-.32-.55.85-.11.75,1.22.75.17.21-.22.21.33.32h.77l.39.48.06-.69h.33l.11-.48-.33-.21.06-.32.55.16.33.43.22-.27.77-.27.22.16,1.11-.59-.17-1.12,1-.64,1-.27-.17-1.23.39-.59-.11-.53.5-.59.22.27-.11.32.22.85h.77l.5-.48,1,.59.11-.21.33.11.22-.16.72.85.55-.21-.17-.27.39-.37-.11-.27.28.11v-.27l.89-.27.11.43-.33.69.33.27h.61l.55.64.61-.21.5.11.17-.69.33-.21-.83-.8-.39-.85.11-1.6-.44-.8.61-.16.17.32.39-.21v.69l.61.32.44-.21.33-.64.22.05.17-.53-.06-.91-.39-.85-.61-.27-.22-.43-.5.21-.72-.05-.55-.85.33-.27,1.11-.11.28-.27-.39-.16.06-.37-.33-.05-.44-1.12,1.6-.85.94.27.44-.16.66-.53,1.05-.05.44.43,1.11-.37-.11-.91.33-.05-.11-.43-.66-.59.28-.59-.39-.05.28-1.07-.66-.27-.28.16-.72.64-.17.75-1.49-.37-.61.48-.77.05-.22.27-.55-.59-.61-.11-.83.21-.06-.32-1-.11-.89-.53-.17-.53-.28-.16-.5-1.07-.11-1.76-.39-.27.06-.27.55-.21v-.8l.72-.96.39.05.22-.48,1,.05.33-.27-.06-.27.61-.16.39-.75-.11-.21.66-.8,1.16-.48.55-.64.66-.11.39-.59h.94l1-.75.5-.75,1.11-.11-.06-.53,1.11-.11,1.66-1.17.55.05.33-.53.77-.11.11-.59.66-.27.17-.53.61-.05.5-.48,1.11.27.06-.69.33-.21-.17-.53.89.05-.17-.43h.5Z"/>
  <path id="IN-MZ" class="cls-1" d="M279.97,167.58h1.44l.17,1.23.5.16.06-.27.55-.16.22-.85.72-.11.17-.96.77-.27.89-2.03.72,1.76.39-.27.5.05.06-.21.28.21.77-.11h0l.28.16-.06.53.28.05-.39.75.17.85-.55,1.17.89.32.28-.16.22.69.55-.53.28.43.55.05.06-.43h.28l.22.32-.11.43.39-.32h.55l-.06.8.72.69.06,2.08.44.96-.55,3.04.22.53-.55.43.33,1.6-.22.91.22.16-1.11,1.6h-.5l-.66-.64-.72.16-.06.59.44,1.01-.33.05-.28,1.17-.22.05.17.8-.22.43.61,1.33-.39.8.28.16.11.69.55.43.22,2.03-.72.16.28.59-.17.27-.94-.53-.33.16.22,1.17h-.61l-.06,1.44h-.22l-.39-.59-.28.16-.22.85-.5-1.44h-.28l-1.49-1.07-.22.05-.17,1.6-.89.48-.06-.96-.39-.85.22-.11.28.21.06-.64-.94-4.69v-1.12l-.22-.96-.33-.16-.33-.85-.11-.85-.17.11-.11-.43-.55-.16.22-1.49-.33-.59-.06-1.6.55-.11-.39-.96.11-.48-.66-1.33-.28-1.87-.22-.05.17-.75-.33-.43h0l-.11-1.07h.33l-.17-.37.22-.27.33.05.11-.59-.22-.59.22-.37-.17-.53.28-1.39-.55-1.44Z"/>
  <path id="IN-NL" class="cls-1" d="M313.56,132.92l.44,1.92-.55.32.28.16.06.64.33.16-.33.64.22.64h0l-.94.85v.48l-1,1.49.44.37v.37l.33.16-.17,1.87.22.32-.28.59.06.75.77.37-.94,1.39-.83.43-.17.32-.06.48.44,1.33-1.33,1.17-.22.69-.33.21.17.32-.66.11-.44.8-1.49.43h0l-.55-.05-.89-.59v-.91l.44-.69h-.22l.22-.59-.28-.05-.77,1.01-.39-.05-.5.37-.11.64-1.22.59-.33-.21-.83.16-.22-.64-.39-.05-.22.37-.55-.11-.06-.32-.83-.43-.06.32-.5.16-.83-.16-1.38.37-.06.48h.44l.06.43-1.05,1.28h-.28l-1,1.97-.61-.59-.55.05.06-.37-.39-.05-.06-.37h0l-.28-.43.33-.43-.17-.69-.77-.37-.72-1.01,1.11-1.07.83-.32.83-1.28,1.55-1.07-.22-.75.72-.32.22-.37.28.69-.22.8.17.37.55-.59.44.21.39-.53.72-.37-.28-1.07.44-.8.17-1.28,1.22-1.92.77-.21.11-1.44,1.05-1.23.17-.05.06,1.07.28.21.39-.59.55-.32.11-1.01.61-.27.06-.43.89-.53.33.27.33-.59.28.27.66-.16,1.33-.91,1-1.6.5-.27.66.43.39-.11,1.05-.53,1-1.17Z"/>
  <path id="IN-OR" class="cls-1" d="M217.11,209.71h1.38l.11.64-.77.05h0l-1.05.69-.17-.27h0l-.39.05.28.32-.5-.05.55-1.33.55-.11h0ZM183.91,188.65l1.55.59.22.85.5.37h.61l.5.43,1.6-.16.28-.37.33-.05v-.27l.55-.16,2.49.05.11-.32.66-.05.28.27.5-.21.22.32.61-.37.11.16,1.27-.48.11,1.55.22.11-.06.32h.28v.27l-.5.21-.55,1.92-.5.32.28.05.5-.37.61.16.28.37.44-.05.17.27v-.27l.44.32.22.53.77-1.28.28-.21.39.05.06-.43.39-.05,1.66.85.61.16.61-.21.44.48,1.38-.75.33.43h-.5l-.33,1.07,1.66.27.06-.48.33-.16.66-1.07.28-.91-.66-.69.83-.75-.39-.05.17-.21-.33-.11.33-.43-.17-.59-.66-.37.17-.53.61-.27.17-.53.77.96,1.99.48.83,1.23.94.53.06-.27.72-.21.39.53h.55l.17.27.61.16.06.32.83.21h0l-.11.85.89-.11.5.69,1.44.16.72.53.22.64-.44.96.39.53.72.05v-.59l.77-.27.11-.53.77.21.33,1.71,1.05.32.22.32h.83v.37l.33.27-.17.75.28.43h0l-1.16.75-2.05-.05-1,.48-1.55,1.17-1.05,1.12-.83,1.49v.64l1.72,3.79-.17.43-.89-.16-.61.32-.61,1.49.55.05-.28-.32.39-.11h0l.17.27,1.05-.69h0l.77.16.5-.16-3.04,2.08-.66,1.55.61.16v.53l-1.16.96-1.44.64-1.66,2.08-.28.69-.55-.11-.61-.91-.5.11-.11.32.66.05.83.85-8.13,2.56-3.21,1.6-2.82,1.92-.89.96-1.77,1.23-1.05,1.01-.72,1.23-.5-.27h0l-.28-.27.11-.37-.44-.05-.06.43h-.83l.33.59.39-.05v.32l-.5-.05-.28.48-.28-.64-.89.53-.22.48-.66-.37.28.53-.28.32.17.27-.39.32-.39-.11.28.21-.44-.05.22.21-.11.21-.33-.16-.06.91-2.1.21-.33.32-.5.05-.61-.69-1,.05-.83-.27-.94-2.24-.55.37.44.85-.39-.11-.44-.8.22-.32-.28-.05-.83-1.6-.33.37.11.37-.28.48-.39-.27-.17.8-.44-.05v-.16h.22l-.11-.48-.11.16-.22-.27-.17.11.22.59-.06.27h-.28l.06.64-.55-.59-.72-.16-.5.21.28.85.22-.48.39.37-.39-.05.77.8-.17.32h-.44l-.06.37-.89.11-.17.37-.55-.11-.17.59-.06-.32-.77-.37-.94,1.39-.44.16-.06.59h.55l-.33.21.06.21.66.11-.83,1.12.28.32.22-.11-.06.64-.44-.11-1,.37-.5-.16-.11-.53-.44.05-.55-.37-.28.21.22.27-.28.75-1.27.53-.39.69-.55-.48-.06-.43.39-.48-.11-.27-.77-.27.22-.59-.28.05-.06-.8h-.28l-.28-.43-1.33,1.49.28.48-.55.59.66.11.06.48-.39.11-.06.59-.33.21.66.64-.11.16-.28-.21-.06,1.17-.28.05-.11-.27-.33.16v.75l-.28.05-.72-.37-.22-.37-1.55-.16-.83.75-1.77.64-.5.48h0l-.66.37-.17-.27-.28.11-.61.75-.5-.16-1,.32-.28-.27-.89.21h0l.11-.91.5.11.44-1.12-.06-.69.39-.75.17-.75-.22-.32.28-.91.77-.48.77-.11v-.32l1-.05.22-.8,1.11-1.17.44-.16.11-.43.44.05.11-.32-.77-.43-.06-.32.72.27.22-.75.77-.32.5.05.06-.53h.55l.39-.37.11-1.23.77-.16-.17-1.23-.33-.53.22-.37-.17-.32-.44-.11.22-.37-.33-1.28.39-.64-.5-.48.28-.05.17-.59-.72-.05-.33-1.01-.83.11.28-.43-.11-1.97.28-.96-.94-.16-.22-.69-1.27-.64-.17-.48.33-1.01.89-.8.94,1.12.39-.48,1.38.85.61-.21,1.27,1.97.55-.64.61-.27,1.77.48-.28.48.17.59.72-.64.66-.05.17-.48-.22-.27.06-1.17-.89-.11-.39.16-2.38-.91-.11-1.01.39-.69-.11-.75.28-.21-.39-.64.39-1.07-.22-.59-.28.27-.11-.69-.66-.53.5-.85-.39-1.6.11-1.49.61.27.17.43.5.05.33-.96.77-.48.83-1.12-.17-.43.39-.37-.11-.59,1.33-.11.44.27.28-.21.77.11.89-.32,1,.69.94.21.83-.43.33-1.49.66-.32-.22-.32.17-.75,1.22.43.33-.11-.11-.59-.5-.53-.17-.64.55-1.39.72-.43.11.53.39-.27-.77-.59.72-.8-.22-.48.28-.37.55.27-.06-.48.61-.16-.17-.32.33-.48-.55-.27-.22-.37.06-1.12.72-.11-.5-.48,1-1.44.55-.27.72.05,1.27-1.23,1.66-.27.44-1.17-.77-.48.06-.21.5-.11h0Z"/>
  <path id="IN-PB" class="cls-1" d="M89.72,61.51l-.28.91.94,1.23-1,.48-1.27,1.39-1.33.53v.64l.5.27-.94,1.12.22.21.61-.16.44.21,1.11.91,1.27.59.89,1.76-.55-.05.94,2.24,1.77,3.04-.22.69.39.27.06.48,1.44-.16v-.32l.5-.16-.22-.64.5-.16.06-.32.17.64.77,1.12-.22.32.39-.37.28.48.28-.11.06.27.22-.27v.37l.39-.32.39.37-.22.43.5-.16.11.16-.5.37v.75l.44.21-.33.75.11.64,1.16.53.66.75h0v.37l.66.59.22.53-.22.37h0l-.39-.05.06-.27-.33.11-.11-.27-.77.53.39.85.77.32.28-.21h0l.17.37.33-.32-.06.48.61.53-.33.75.39.27-.39.43v.59l.44.69-.55.37v-.32l-.55-.64-.28.27-.61-.37-.66.59.11.37.33.05-.28.32-.44.11-.77.69-.72.05-.17.48.61-.37.33.32-.11.21.39.11-.17,1.28-.28.32-.28.05-.28-.32-.61.27-.11-.27-.44-.05-.5-1.33-.33.27.22.32-.11.37-.72-.27.28.27-.28.27-.83-.16-.55-.53.11.32h-.22l.72.37-.66.85.22.16-.28.16.17.96-.44.21.22.53.66.27-1.44.96-.44-.11-.5.75-.22-.11-.61.32-1-.21-.61-.85-.39.05-.28-.21-.77.21-.11.69-.83-.21-.17.32-.5.05-.17-.32-.5.05-.77-.64-.77,1.23-.5.21.17.43-.39-.16-.44.8.28.27-.11.27-.83.27v-.8l-.55-.32-.17-.43.44-.32v-.48l.44-.32-.55-1.12-.33.27v.48l-.72-.32.22-.27-.28-.32.28-.32-.22-.53-.22.48-.89.27-.89-1.17-.33.11-.06-.37-.39.11-.55-.43-.89.37-.39-.11-.61.59.06.21-1.49-.48h0l-7.25-.32.06-1.01.83-.96v-.96h0l-.11-.85-1-1.39.39-.64.28-.05.11-.53.33.05.22-.53.61-.48.5.11-.11-.32.28-.27v-.48l.22.11.11-.32h.39l.94-1.12.55-.16-.22-.48.39-.21-.11-.21.33-.64h.55l.06-.53.61-.27.61-.8.77-.37.22-.96.72.27.55-.21.28-.43-.22-.48-.55.11-.11-.21-.33.05-.06.48-.39.11-.11-.48-.44-.21.06-1.76.5-.32,1.05-2.13-.17-.37-.72-.21.44-.43-.06-.43-1-2.03v-.32l.39-.11.06-1.01.5-.75.28.05.44-.48.5-.11.06-.43.33.27.11-.21.72-.05.11-.53.55-.37.11-.37.61-.21.94.48,1.27-.69.55.21.33-.64.5.37,1.44-1.97.06-.43-.5-.91h0l1.05.16.66-.21-.06.32.28.11.11.43.33-.96,2.1-.91.39-.75.66-.16.77-.48Z"/>
  <path id="IN-PY" class="cls-1" d="M135.82,325.54h-.44l-.06-.59-.94-.32-.28-.64.5.11-.17-.48.61.21.22-.21.61.11h0l-.06,1.81h0ZM135.21,314.24l-.22-.37-.33.16v-.43l-.55.27-.5-.32.28-.43.39.32.11-.21-.22-.43-.33-.11.22-.43-.61-.16.39-.37.33.48.33-.21.22.16-.44.16.22.69.72-.64.44.27h0l-.44,1.6h0ZM163.71,257.92l-.94-.43.5-.32.06.37.72-.05.17-.21.06.32h0l-.61.05.06.27h0Z"/>
  <path id="IN-RJ" class="cls-1" d="M67.64,92.76v.96l-.83.96-.06,1.01,7.25.32h0l-.17.48.33.05.22.48-1,1.01.06.59.61.05.72-.37.22.21-.44,2.45.55.48-.39.91-.44-.11-.17.21v.32l.33.11.44.75v.43l.55-.05.11-.53,1.22.21,1-.64,1,.48.28,1.07.44.11.55-.21.44.69.33.05.83-.53.5.43,1.11-.75-.06.75.33.11.17-.37.44-.11.06.96-.44.59.39.16-.17.75.55.05.06.64.89.05.06.43-.55.64.55,1.12-.17.64.33.48.33,1.71.72.16.11.69,1.72,1.12-.11.64,1.38.16.39.32.39.64.72.48-.11.48.5.21-.11.27.55.59-.33.16v-.32l-.44-.05-1.05,1.01.55.16.06.37.39-.48.22.21-.33.27.06.21-.44.05.22.27-.39.11.33.21-.28.59-.28-.16-.17.21.06.21.55.11-.17.59,1,.21.44-.27,1,.75.61-.43-.33-.27.06-.43-.39-.21.17-.75-.28-.32.66-.43-.44-.37.83-.16.33.16.17.43.5-.11.17-.48-.66-.32.66-.37-.89-.64h.66l.5.48,1.11-.21.33.59-.44-.05-.17.21.55.37-.5.21,1,.16v.85l.72-.48.72-.11-.11-.96,1.6-.75.11-.69.55-.21,1.27,1.07-.5,1.87v.91l.22.05-.17,1.07h-.28l-.22,1.28.33.37h-.39l.28.53.39-.21.44.21.28-1.07,1,.05-.11-.32-.55-.16.22-.53,1,.53.28-.21v-.32l.33.11-.17.32.28-.48.44.48.33-.37.17.11h0l.33.21-.06.85.44.27.06.53-.39.53.44.21-.22.27.06.53.55.16.17.48.39.21-.17.48.22.32.77.21.89.69.44-.21-.28.53.61.8-.06.27.39.21-.22.32-.55.11-.17.59-1.05.37.28.37.5-.16-.11.53.83.27.55-.43.33.64h.22l.06-.37.33.11-.22.43-1,.16-2.6,1.33.22.59-.11.64h.39l-.17.27.5-.27-.17-.27.22-.75.28.32,1-.16,1.27-.59.06-.43.39-.27,1.6.59.11-.43.5.32.77-.16.17.64.28-.16-.06-.53.66.11.11-.59,1.11.16.11-.21.55.37-.39.53-.39-.05.22.64h0l-.55.11.17.43-.89-.05.17.53-.33.21-.06.69-1.11-.27-.5.48-.61.05-.17.53-.66.27-.11.59-.77.11-.33.53-.55-.05-1.66,1.17-1.11.11.06.53-1.11.11-.5.75-1,.75h-.94l-.39.59-.66.11-.55.64-1.16.48-.66.8.11.21-.39.75-.61.16.06.27-.33.27-1-.05-.22.48-.39-.05-.72.96v.8l-.55.21-.06.27.39.27.11,1.76.5,1.07.28.16.17.53.89.53,1,.11.06.32.83-.21.61.11.55.59.22-.27.77-.05.61-.48,1.49.37.17-.75.72-.64.28-.16.66.27-.28,1.07.39.05-.28.59.66.59.11.43-.33.05.11.91-1.11.37-.44-.43-1.05.05-.66.53-.44.16-.94-.27-1.6.85.44,1.12.33.05-.06.37.39.16-.28.27-1.11.11-.33.27.55.85.72.05.5-.21.22.43.61.27.39.85.06.91-.17.53-.22-.05-.33.64-.44.21-.61-.32v-.69l-.39.21-.17-.32-.61.16.44.8-.11,1.6.39.85.83.8-.33.21-.17.69-.5-.11-.61.21-.55-.64h-.61l-.33-.27.33-.69-.11-.43-.89.27v.27l-.28-.11.11.27-.39.37.17.27-.55.21-.72-.85-.22.16-.33-.11-.11.21-1-.59-.5.48h-.77l-.22-.85.11-.32-.22-.27-.5.59.11.53-.39.59.17,1.23-1,.27-1,.64.17,1.12-1.11.59-.22-.16-.77.27-.22.27-.33-.43-.55-.16-.06.32.33.21-.11.48h-.33l-.06.69-.39-.48h-.77l-.33-.32.22-.21-.17-.21-1.22-.75.11-.75.55-.85.61.32.22.37.61-.11.39-.43.39.8.72-.37.22-.8.61-.16v-.43h-.55l-.17-.37h-.39l.33-1.01.61-.32-.17-.69-.55-.11-.33-.48-.11-.69.33-.05-.06-.21.5-.59.66.69.72-.48.06-.43-.22-.21.39-.27-.22-.21.11-.21-.61-.53-.28.21-.11-.21.22-.48-.28-.21.11-.69-.94-.43-1.72.96-.39-.43-1.49.37-2.16-.48-.61.11-.39-.59.22-.53.55-.32-.61-.59.06-.32.17.27.33-.05-.28.43.61.05.33.48,1.27-.64.06-.37-1.16.05-.17.21-.55-.27.39-.43-.33-.48.11-.16.44.96.28-.75-.22-.53.39-.21-.06-.21-2.16-.05.06.64-.55.32.06.96-.72.11-.17.27-1.44-.43-.06-.43-.33-.27-.22.16-.22-.48-.28.59.39.91-.06.75.11-.27.66.32,1.05-.11.17.53h-.33l.06.53-.44.11-.22.48-.55.05-1.11-1.71-.28,1.33.5.21-.39.43.06.32-.5.16.11.53-.5.53.77.32.44-.11v.37l.44-.05-.83,1.17-.06.69-.33.43h1.33l.28.21.11.32-.28.27,1.27,2.24-.83,1.17-.17.75.39,1.71-.39.64.39.64-.39.11-.72.85-.5.27-.22-.16-.61.59-.39-.05-.55.48-.5.05-.44.48-.06.53-.61.59.39.59.22-.21.89.48.61-.16.22.37-.33.21.61-.11v.27l-.33.21-.55-.11-.72.69-.72.16-.39.53-1.38-.27-.77.59h0l-.44-.37.06-.27-.5-.85-.44-.05-.28.48-.66-.32.06-1.12-.39-.32h-.66l-.11-.43-.5-.05-.22-.48-.28.05-.11.37-.5.05-.72-1.33-.55.16-.22-.27-.44.53-.28-.53-.61.16-.22-.16.28-.64-.22-.53.28-.91-.94-.37-.72.48-.06-1.07-.33-.05-.66-.85-.5.16-.17-.27v-.91l.72-.85-.22-.75.11-.75-.5-.43.06-.48-.44.16-.06.53-.5.59-.5.21-.55-.48.28-.59-1.27-.48-.39-.59.72-1.49.39.05.17-.53.22.11.22-.37-.22-.11-.5.32-1-.53.28-.37-.17-.85-.5.37-.44-.21-.17.16-.44,1.07.33.27-.77.48-.66-.48-1.55.05-.44-.69.06-.48-1.27-.21-.5-.43-.5.69.11.48-.5.05-.33-.64.06-.53h0l-.61.05-.39-.64h0l-.72.16-.5-.53.33-.27.55.16.33-.37-.44.11-1-.32-.22.27h-.5l-.94-.48v-.53l-.39-.11-1.27.96-.28-.48-.5-.11-.22.85-.55-.21-.17-.59-1.6.48-.5-.48-1.49-.05-1.22.64-.39-.37-.61.59-2.21-.91h0l-1.88-3.15-.61-2.61-1.27-1.55-.28-.69-.83-.85.17-1.6-.28-2.24-.55-.11-.94.37-1.6.16-1.38-.48-2.1-3.04-.17-1.6,1.05-2.13.11-3.04-.17-.8-1.16-.59-2.16.21-.72-.16-1.11-.75-2.49-1.17-.28-.75.33-2.67.77-1.87,3.26-2.99.89-1.23.94-.69,1.05-2.67.55-.85,2.43-2.19,1.38-.32.94.16,1.27,1.33.06.96.94,1.55,1.44.21,4.48-1.81,1.6-.32,2.88-.05,2.77-1.12.44-2.13.72-1.01,2.16-1.92,1.38-3.89.94-1.28,3.76-2.19,2.66-1.17.66-1.55,1.05-1.28,2.1-3.95,1.38-4.91,2.55-1.07,2.05-.59,2.1-1.6Z"/>
  <path id="IN-SK" class="cls-1" d="M237.69,119.59l.22.32h1l.94.8.06,1.01.28.11.28.8-.39.59-.11,1.87-.94,1.33.5,2.03,1.33,1.01-.28.64-1.16.32-.17.8-.44.48h0l-.33.11-.44-.53-.33.21-.44-.32h-.72l-.44.11.11.37-1.16.85-1.27-.27-.22-.32-.83.11-.44-.21-.66.27-.61-.32-.11-.75-.66-.21h0l.61-1.49-.28-.43.06-.43.39-.27-.44-.85,1.77-3.73-.28-.37.33-.21-.06-.21-.77-.37-.06-.85.17-.16.55.27.5-.32.17.27,1.16-.53.5.16,1.11-.85.66.11.17-.59.72-.21-.06-.32.55.21Z"/>
  <path id="IN-TG" class="cls-1" d="M109.15,239.15l.22-.32-.55-.37.39-.8-.33-.11.66-.21-.44-.21.33-.27.28.11-.06-.85.61-.05.11.32.94-.32-.06-1.44.28-.37.33.27.61-1.44,1.22-.16-.72-1.01-.5-.05.17-.48-.5.05.06-.37h-.55l-.11-.53.06-.37.39.11.06-.59.55.16-.22-.53.33-.53-.11-.21.22-.69.44-.16-.5-.21v-.21l1-.48,1.11.85.06.32.39-.16,1,.21.33-1.12-.17-.96,1.49-.53-.33-1.23.39-.16v-.37l-.5-.69.17-.32.66-.27.28-.8-.33-.69-.5-.11.28-.8.22.37.55.05.17.53.89.21.22.27.39-.32.89.05,1.33.59.77-.16.72.27.17,1.23.66-.16.61.21.11.75-.28.37.44-.11.28.27,1,.16.89.8.5-.11-.17-.27.33-.43.11-1.01.72.27.11.27.61-.05,1.16.85.83-.59.11.32.55.21.5-.85,1.16-.32.5.11.5.69,1.27.85.39.75-.11,1.23-.5.85.28.64-1,.8v.8l.66-.16.22.32.06,1.92-.5.32.44.53.94.21,1.16,1.07.55-.21.33.27.17-.27.77-.27h0l.89,1.55,1.66-.48,1.72,1.28.22.53.55.43-.11.21.39.11-.11.32.33.96.5.59-.61.43v.53l.72.05.39-.8.44.32-.22.11.17.75,1.27-.43-.33,1.01,1.05,3.41.5.05,1-.8,1.11.48,1.49.05h0l.89-.21.28.27,1-.32.5.16.61-.75.28-.11.17.27.66-.37h0l.39.48-.11.27-2.38,1.23-.06.43-.77,1.17.22.21-.28.37-.11,1.07-.89,1.01-.5.05-.55-.37-.66.85h-1l-.22,1.07-1.33.21-.66.37-1-.27.11.64h-.5l-.11,1.12-.33.32-1.22-.48-1,.11.22-.37-1.11-.59-.72.37-.17.69-.44.37-.28-.11-.28-.64-.33.27.28.48-.33.53,1.49.64.06-.37,1.05.27.06.64-.28.05-.11.53.55.43-.5.27-1.22-.32-.06-.32-.61-.43-.33.43-.17-.53-.44-.21-.22-1.01-.44-.64-.72-.05-.22-.37-.55.69-1,.21-.44.69-.22.53.5.11.44.48-.28.8-1.05,1.23-.66.05-.44-.69-.61.11-.39-.48-1.49.8-1.77.37-.83.53-1.88.27-.5.64-.06,3.15-.5.27-1.66-.32-1.22.48-.22.21.06.91-.44-.05-.11-.48-.28-.05v.8l-.72.75-.72-.05-1.11-.85-.66.48-1.77-.27-1.05.59h-.66l-.22,1.17-.66.32-.17.59h-.44l-.17.27-.55-.21-.33-.69-.39.48-1.33-.43-1.05.37-.94-.27-.66.11-.61-.43-1.11-.11h0v-.96l-.22-.32.22-.85-.28-.16-.06-.48.33-.75h-.28v-.32l.17-.21.39.05.39-.43.28.11v-.59l-1.11-.43-.94.16-.77-.21-.66-.27-.55-.75.66-.05.06-.21.83.11.17-.32.44-.11-.28-.53.83-.21.06-.75-.44.11-.17-.32.55-.16v-.37l-.5-.05.17-.8.39.05-.61-1.23.55-1.17-.44-1.12-1.16-.69.44-.53-.22-.11.89-.64-.22-.16.22-.96.55.21.33-.21.11-.37-.28-.27.72-.05v-.27l.44.11v-.32l.33-.05.17-.32-.06.27.44.11v-.37l-1.11-.32v-.37l-.5.16-.22-.27-.28.37-.11-.32-.55-.16.11-1.28,1.27-.64.06-.21-.72-.21.06-.21.17-.32.28.11.28-.64.28.05-.11-.43.39.05.11-.64.22.16.11-.27-.11-.27-.61-.21-.55-.53.61-.53-.06-.64-.39-.59.44-.91-.77-.21Z"/>
  <path id="IN-TN" class="cls-1" d="M129.56,342.39l.28.21-.22.32.11.21,1.33,1.17-1.66-1.01-1-.11-.11-.27.17-.16h.55l.55-.37h0ZM116.95,303.41l.06.43-.44.37.89-.11.28.43.89.48,1.05-.05v-.53h.33l.06-.48h.28l.11.27.28-.05v-.69l.44-.32.5-1.71h.22l-.39-.69.44-.43.5.16.11-.59.5.11,1.49-.48.06.75h.5l-.39-.21.22-.37.77-.11,1.05.69,1,.05.44-.91.33-.21v-.37l.55-.05.44.53.55-.37-.06-.37.89-.27v-.27l.28-.11-.11-.16-.28.21.17-.8-.61-.27.61-.21,1.22.16.17.48.39.27,1-.43.06.59.28-.05-.11.32.39-.16.28.32.44-.32-.72-.53.39-.37.28.21.22-.27h.61l.89-.37.33-.43-.22-.37.33-.16v-.37l.39-.11.11-.32.33.05h-.06s-.5-.11-.5-.11l.06-.21.89-.11.94.69h.89l.55,1.01.44.21v-.59h0l.39,1.71-.55,1.55-.5,4.11-1.11,3.57-3.15,4.64-.55,1.44h0l-.44-.27-.72.64-.22-.69.44-.16-.22-.16-.33.21-.33-.48-.39.37h0l.61.16-.22.43.33.11.22.43-.11.21-.39-.32-.28.43.5.32.55-.27v.43l.33-.16.22.37h0l-.5,2.77.94,2.4.17,4.32h0l-.61-.11-.22.21-.61-.21.17.48-.5-.11.28.64.94.32.06.59h.44l.33,5.87-.5.21h-1.05l-4.15-.48-1.05.64-.77,1.33v.59l.44.64-1.33,1.17-.39.91-1.49,1.65-.66,1.12-.44,1.44.5.85,1.44,1.17,1.49.21-1.11.27-1.6-.16-.94.16-1.66.53-.11.21h-.72l-.17.21.17.16-.94.32-1.94.21-2.32,1.71-.44.85-.11,1.23.33-.05.5.32-.72.05-.72,1.07-.11.8.5-.11-.11,1.01-.77.85-.17.43.22.11-3.04,1.39-.66.8-1.99.48-.28.69-2.71-.48-2.55-1.97h0l.28-.27.44.11-.28-.75.89-.69-.28-.64.72-.11.22-.43-1.27-2.24.22.05.44-.48.33-.96-.44-.64h-.28v-.37l-.55-.75.55-.27.17-.59.66-.64-.17-.43.33-.32v-.85l.22-.43h.33l.28-1.17.5-.21.22-.53-.55-.32-.11-.8-.17.37-.22-.32-.55.32-.66-.43h-.5l.44-1.23.22-.05v-.64l.28-.11-.28-.32.17-.37-.28-.21.39-.85.28-.11-.11-.75-.72-.8.83-.32.22-1.01-.39-.16.06-.37-.44-.59.11-.37-.66-.05-1.27.69-.17.43-.77.43-.77-.16-.5-.48v-.27l-.28.16-.22-.21.22-.75-.39-.64.28-1.92-.28-.48.77-.05-.22-.53.5-1.07-.11-.32-.55-.11-.28-.64-1.94-.69.66-1.23,1-.11-.66-.05v-.85l-.55-.27.39-.75-.33-.27-.83.53-1.55-.21-.39.27-.06-.59,1.11-.69v-.69l-.33.05-.72-.37-.44-.59-.89-.27-.17.16-.5-.32-.44.16-.17-1.17.5-.32.33.32.61-.21.33-.43h.5v-.43h0l.33.05.61-.48.44.32.22.69h2.16l.83.16.22.27.17-.32-.28-.48.83-1.6.72.21.17-.43h.39l.33.21-.11.21.39-.16.17.59.44.16-.06-.59,1.44-.21.17-.21.5.05.5.43.39-.21.72.32.44-1.01-.06-.59.28.16.11-.64,2.05-.05.33-.8.94-1.07-.5-.69-3.04-.37.06-.69.83-.27.72-.8.17-.64.06-.8-.55.11.33-.37-.33-.11-.11-.59.33-.75-.11-.43.72-.21.28.27.28-.27.33.11.77-1.39-.17-.53,1.55-.53.22.27-.28.37.17.11.22-.43.44.64h.22l.17-.59.39.05.83.85.89.05h0Z"/>
  <path id="IN-TR" class="cls-1" d="M278.7,164.22l.55.21h0v.53l.5,1.01-.66,1.6,1-.05h0l.44,1.28-.28,1.39.17.53-.22.37.22.59-.11.59-.33-.05-.22.27.17.37h-.33l.11,1.07h0l-.22.05-.28.8-.06-.48-.39-.21-.06-.37-.22.05-1.05,1.17-.55-.16-.44-.85h-.22l-.22.59.39,2.45-.39.16v.37l-.44-.05-.66.48-.83,1.49.72,2.24-.22.32-.44.05-.61.96-.28-.16-.55.11-.55.43-.44-.21-.83-2.19.17-.37-.44-.11.11-.27-.28-.53h-.44l-.39.91.39,1.44-.5-.05-.55-1.12v-1.17l-.28-.48.17-.16-.28-.21.33-.48-.33.11-.5-1.65-.55-.32.11-.37h-.22l-.39-.64-.06-.85.44.27.11-.48-.61-.05v-.59l.39-.16.33.16.39-1.23-.28-.53.22-.37-.17-.21.5.05-.06-.48.11-.21.17.11.06-.32.83.27.22-.91-.22-.69,1.94.43,1.05-.32.28-1.07-.17-.32.22-.21.22.75.55.32h.33l-.22-1.28.83.48.39-.21-.06.37.55.75.28-.05.39-1.55-.22-.85.44-.27.44.43-.22-.85,1.66.05.22-.48.39-.05-.22-.85.06-.32.22.11Z"/>
  <path id="IN-UP" class="cls-1" d="M109.31,90.04l.83-.11.89.96,2.55,1.17-1.05,1.76-.28.27-.33-.16-.33.69.17.27-.5.48.17.27-.33.43.17.27-.33.53.72,1.12-.06.91.44.21-.06.21.44.16.5-.43.89-.05.28,1.17h-.28l-.06.32.44.05.06.53.55-.11.06-.53.44-.11.66-.96.61-.43.44.05,1.16-1.17.94.32.89.43.44,1.49.89.8,2.1,1.12,1.6.27-.61.8-.5.32-.22-.21-.22.69-.39-.27-.5.43,1,.75.61-.05.55.75v.64h.5l.22-.21.61.64.11-.69,1.22.53.06.75.33.21-.06.37.55-.05,1.11.96h.61l.11-.21.22.43.28.05.11.96,1.11-.11.33-.37.17.59.72-.27.61.27.55-.43.72-.16.39.37-.28.75.39-.11.11-.43h.33l.28.32-.39.11.72.11-.22.37.39.69.55.21.55-.27.33-.59-.17-.21.55-.37h.55l1.16.96.39-.05.06.37.72.37.5.8,1.05.11.77.96.17-.27-.33-1.17.77-.27.5.64.66-.05.28.69.89.27.22.53.89.43.11-.27.39.16.06.37.77.43.44-.21.22.48.5.37,1.49.32.28.91,1,1.17v.37h-.22l.28.21-.11.21.61-.11.06-.43.77.21.44.53-.06.43,1.66,1.01.89.21,2.1,1.65.5-.05.5-.85,1.16.05.66.75,1,.27,2.77,2.08,2.99-.53.06.69.5,1.01-.22,1.07,2.27.05.28.43.94.27,1.77-.05,1.33,1.55.61-.16.61-.85-.28-.27.22-.27-.17-.27,2.6.11,2.82,1.49h0l-.33.37.28.16.72-.16.11.27-.33.59.66.32.28.43-.44,1.33.94-.05-.33.32.55.32.06,1.01-.28.27.28.16.06.48.44.16.11-.32.44.16-.11.37.44.27.44-.48.39.11.11.69-.33.64.11.21.17.11.61-.32.33.85.89.16.17.53-1.66.37-2.21-.53v.53l-.39.69-.83.16-.11.27-.72-.11v.85l.94.21.33-.16.72.8,1.16.11.11.69-.28.91-.55-.21-.39.53-.77-.27.06,1.17.33.59.5.05.89.91v.43l.39-.11,1.11.69.66-.16.66.37.17.48,1.22.16v.53l.33-.05.72.53-.22.43.33.43-.89-.11-.06.64-.22-.11.06-.43-.11.53-.44.11-.44-.48-.55.16-.28-.59-.55.05-.17.91-.39-.05v.21l-.94-.11-.11-.43-.55-.32-.61.11-.28.32.06.75-1.83.96-.77,1.07-.5.11.33.37-.5.05.06.27-.44.27-.33-.27-.33.32-.11-.11-.22.21.17.11-.44.05-.33.48-.66.27-.28-.11-.94.8-.61.05-.22.53-.44.11-.17.21.28.69-.44,1.33.28.11.11,1.71.44.48-.06.59.77.64.33-.05v.37l.39.32-.17.37.5.32-.5,1.23h0l-1.22.32-.11.53.22.59.33.05.28.48-.89.64.28.59-.89,2.03h0l-.39.37-.17.59-.72.43-.33.85-1.22.53-1.72.05-1.49-1.07h0l-.11-.53-.66-.21.28-.69-.66-.05-.61-.64.17-.27.55.21.06-1.01.28-.16.17-.69-.06-1.01-.61-.16.33-1.39-.22-.16-.06-.53.39.16.61-.16-.06-.59h-.44l.06-.59h-.77v-.37l-.44-.32-1.49.59-.11-.32h-.83l-.17-.37-.33.27.11,1.07-.94-.32-.44.11.06-.69-.39-.21-.11.27-.28-.05.17-1.28-.06.27-.22-.16v.21h-.28l.17.27-.5-.16.17-.53h.22l-.33-.27.22-.27-.44.37h-.55l-1.22-.75-.55.27-.72-.75.17-.48-.17-.96-.17.21-.66-.32-.44.11-.66-.48-.61.05-.28-.43-.61.21-.11-.21.44-.27-.17-.21-.17.27-.11-.43.33-.27-.44-.11-.17-.32-.66.11.17.53-.33-.11-.28.21.39.37-.28.37-.94-.43.44-.05-.11-.27-.44.11-.72-.59-.22.11v.59l-.11-.64h-.44l-.28.75.17.48-.72.91.11.75-.33.05.17-.05-.44-.27-.33.8-.66-.75h-.77l.11.27-.72.11-.22-.59-.44.21h0l.06.21-.22-.11h0l-.55.16-.39-.11-.17-.32.66-.32-.28-.53.5-.37-.06-.64.44-.43-.33-.43-.5.05-.11,1.01-.33-.43-1.16.11.28.16v.32l.61.16v.27l-.55-.11-.61.21.06-.32-.28.11-.66-.37.33-.21-.44-.37.17,1.01-.5-.21-.22.32-.39-.43h-.39l.28.16-.06.53h-.28l-.33-.48-.89.32.17.59-.28-.21-.5.27-.55-.32,1-1.44.83-.37-.28-.85-.22.05-.83-.64.06-1.23-.61-.53-.11.32-.61-.16-.06.43-.77.53-.44-.21-.72.16-.28.91-.61-.05-.33.48-.11-.27-.66.21.28,1.12-.28.21.11.43-1.27-.59-1.72.16.06-.27-.17.11-.28-.37-.89,1.17-.33-.16.11-.48-.44.32-.17-.37-.17.32-.17-.69.28-.48.39-.05-.17-.16.39-.53h.39l-.39-.16-.5.32-.55-.43-.17.37-.28-.37.17-.48-.61-.11-.39.37v.48l.33-.21.28.37.33-.16-.11.53.22.21-.17.16-.66-.59.06.64.39.59-.11.21-.5.16v-.37l-.28-.11-.28.16.33.11-.06.32-.39.05-.28-.48-.22.11.17.32-.55.11-.22-.43.17-.27-.44-.37-.5.69-.22-.05.06-.53.39-.48-.5-.27-.06-.37-.39.37.28.16v.48l-.55-.32-.89.69.06-1.12.17.11.22-.37.39.16.33-.27-.22-.8-.28.21-.61-.16-.39,1.44-.44-.53.06-.37-.33.05.11-.21.61-.21.11-.8.44-.43.89-.16-.22.27h-.44l.44.27.55-.32-.22-.8-.33.11-.28-.21.39-.43-.22-.48.28-.11-.11-.37-.17.21-.06-.21-.44.05v.43l-.55.16.33.53-.28.43-.22-.16.39-.11-.17-.16-.83-.11-.28-.32-.06.48.33.37.66.05-.83.21.22.69-.61.05-.06-.32-.61-.11v-.37l.17.21.39-.32-.17-.21-.39.05-.28.48-.28-.11-.17.32-.33-.05.17.53-.61-.16.17.43-.17.27-.28.05-.11-.27-.28.37-.33-.16-.17.21.33.21.5-.27.83.43.33,1.97.5.43-.22,1.17.39.27.17.53,1.11.48.17.59-.17.27.11,1.12-.39.53.11.69.33.16,1.22-.59,1,1.76-.39.16-.22-.21-.06.43.89.32-.22,1.07-.66.64-.33.96-.77.16-.39.32-.39-.96-.17.21-.17-.16-.39.21-.33-.11-1.05-1.39-.83-.43-.83,1.17-.66.27-.61-.64.39-.69-1.11-.75.06-.37-.55-.59.44-.43.11-1.33-.55-1.01-.11-.8-.5-.53v-.32l1.88-1.44v-1.12l.77-.53h.55l-.28-.32.33-.21-.72-.32.17-.27-.5-.37-.11-.64-.44-.16.28-.32-.39-.48.39-.32.22-.69.33.11.5-.37-.17-.69.22-.37.28.16.33-.37,1.11.21.33-.32.44.27.33-.37,1.49-.37.06-.64-.77-.91.83-.64v-.21l-.28-.05.17-.16.61.37-.17-.75.44-.11-.06-.59.61-.43.17-1.07.66-.53-.72-.69.66-.21-.28-.48h.44l.06-.48h.44l-.22-.43.33-.27.17.21.11-.48.39-.05-.11-.21.22-.11-.66-.21.11-.69h.33l.11-.32-.89-.16.17-.59-.44-.59h-.28l-.06-.37-.11.11.28-.48-.17-.91-.66.27.11-.43-.5-.21-.44.11-.61-.75h-.5l-.28-.37-.22.16-.11-.27-.66.37-1.11.16-1.33-.48-.28-.43-.44.11-.44-.64-.77.11-.22.53-.61-.21h0l-.22-.64.39.05.39-.53-.55-.37-.11.21-1.11-.16-.11.59-.66-.11.06.53-.28.16-.17-.64-.77.16-.5-.32-.11.43-1.6-.59-.39.27-.06.43-1.27.59-1,.16-.28-.32-.22.75.17.27-.5.27.17-.27h-.39l.11-.64-.22-.59,2.6-1.33,1-.16.22-.43-.33-.11-.06.37h-.22l-.33-.64-.55.43-.83-.27.11-.53-.5.16-.28-.37,1.05-.37.17-.59.55-.11.22-.32-.39-.21.06-.27-.61-.8.28-.53-.44.21-.89-.69-.77-.21-.22-.32.17-.48-.39-.21-.17-.48-.55-.16-.06-.53.22-.27-.17-.05.39-.53-.06-.53-.44-.27.06-.85-.33-.21h0l.72-.69h.83v-.48l.55.16.11-.59h.61l.22-.32-.33-.11.28-.32-.66-.64-.11-.53.11-.27.17.11.06-.8.55-.27-.61-.05-.06-.32.33.11-.06-.37.28-.21-.83-.27.28-.16.06-.32-.39-.37.33-.27-.22-.69-1.6-1.23h0l-.5-.75.5-.53-.28-.48.17-.91-.44.05-.72-.96-.33-.11.22-.53-.33-.43h0l-.06-.32.44-.16-.33-.64.28-.64-1.05-1.28.22-.96-.17-.53.22-.21-.17-.37.28-.8-.39-.16-.06-.32.33-.16-.22-.27.17-.43-.61-1.17.28-.27-.28-.64.66-1.33-.33-.85.39-.27.33-1.44.94-1.23.11-.59,1.66-.75-.17-.16.28-.64.55-.27.61-1.23.5-.37.28-.75-.22-.16h0l-.06-.43Z"/>
  <path id="IN-UT" class="cls-1" d="M128.18,77.67l.61.75-.17.53.44.32.17.8.44.53.66.16.39,1.07h1l.33.85.66.43.77-.53.61.05.44-.32.72.37h.55l.72,1.12,1.49.64.66.85.61-.43.39.64h.39l.17.37-.22.53-.44.37.33.32.06.85,1.05.16.72.53.39-.05,1.44,1.01.66-.43,1.77,1.17.83,1.01,2.43.85v.21l-.33-.11-.89.32-.55.69.17.53-1.33,1.01-.17.53-.83.64h-.83l-.61,1.39-.66.69-.66-.11-.77.69.17.96.44.48-.17.59-.33.43-.44.11.06.43-.72.53.17.32-.66.11v.43l.39.27.06.59.44.43-.22,1.39-.55-.21.28,1.01-.44.32-.55-.27-.44.43-.11,1.23-.22.32-.22-.05-.5.91.17,1.12h0l-.55.37.17.21-.33.59-.55.27-.55-.21-.28-.96.17-.21-.72-.11.39-.11-.28-.32h-.33l-.11.43-.39.11.28-.75-.39-.37-.72.16-.55.43-.61-.27-.72.27-.17-.59-.33.37-1.11.11-.11-.96-.28-.05-.22-.43-.11.21h-.61l-1.11-.96-.55.05.06-.37-.33-.21-.06-.75-1.22-.53-.11.69-.61-.64-.22.21h-.5v-.64l-.55-.75-.61.05-1-.75.5-.43.39.27.22-.69.22.21.5-.32.61-.8-1.6-.27-2.1-1.12-.89-.8-.44-1.49-.89-.43-.94-.32-1.16,1.17-.44-.05-.61.43-.66.96-.44.11-.06.53-.55.11-.06-.53-.44-.05.06-.32h.28l-.28-1.17-.89.05-.5.43-.44-.16.06-.21-.44-.21.06-.91-.72-1.12.33-.53-.17-.27.33-.43-.17-.27.5-.48-.17-.27.33-.69.33.16.28-.27,1.05-1.76-2.55-1.17-.89-.96-.83.11h0l.22-.32,1.16-.27,1.38-.8.11-.27-.11-.37h-.5l-.39-.48.61-.27-.06-.59-.55-.27.11-.32-.61-.75.66-.8v-.69l.5.32.06-.85h-.55l-.11-.48.33-.21.61.32-.22-.21.33-.48-.28-.69.5-.27.5-.96.77-.32.66.32.17-.37.66-.05.72-.53,1-.05.44-.48.28.05.06-.27.66-.05.5.59.28-.16.28.21.28.53.77-.05.66-.37.44.21.17.37,1.72-.16.28.75.61.53,1.44-.11-.28-.8-.66-.64-.11-.43h0l.22-.96.77-.43.66-1.39.94.43.83.8Z"/>
  <path id="IN-WB" class="cls-1" d="M235.98,199.79l.33.32.06.37-.55-.16.17-.53ZM239.85,199.69l.77.64h-.72l-.06-.64ZM238.58,199.47l.33.32-.17.37-.33-.27.17-.43h0ZM236.42,199.31l.61.43-.44.48-.44-.48.17-.64.11.21ZM239.13,199.15l.28.75-.55.16.17-.32-.28-.32.39-.27ZM241.4,199.26l.22.27-.33.05-.06-.59.17.27h0ZM237.08,198.83v.75l-.44-.27.44-.48h0ZM241.62,198.51l.06.48.28.21.17.53-.33.05v-.32l-.33-.27-.28-.59.44-.11ZM239.52,198.62l-.11.48-.44-.27.55-.21h0ZM233.82,198.51l.39.21.17.48-.5.48-.06-1.17h0ZM235.48,198.46l.17.43-.28.59-.17-.64.28-.37h0ZM232.55,198.3l.17.27-.11.21.17.21.06.27-.11.48-.33-1.01.17-.43h0ZM242.45,198.3l.39.96-.5.32-.61-.75.11-.32.61-.21h0ZM236.59,198.35l.33-.05.17.37-.55.53-.28-.64.33-.21ZM240.46,198.03l.66.59-.28.75-.55-.75.17-.59h0ZM234.98,198.19l.17.37-.22.53.22.37-.39.37-.22-1.01.28-.43-.28-.16.17-.27.28.21h0ZM232.71,197.98l.55.11.39.85-.17.8.22.27-.33.27-.39-.11-.28-2.19h0ZM241.01,197.87l.44.48-.5-.11.06-.37ZM234.48,197.87l-.06.43.22.21-.28.21-.11-.75.22-.11ZM241.95,197.87l.44.32-.28.16-.17-.48h0ZM239.85,197.87h.33l-.28.64.22.85-.17.11-.39-.16.06-.85-.44.05.22-.48.44-.16h0ZM236.97,197.66l.44.59-.17.43-.33-.69.06-.32ZM241.57,197.55l.44.69-.11.11-.61-.64.28-.16h0ZM237.25,197.5l.11.48-.22-.16-.11-.27.22-.05h0ZM235.64,197.5v.64l-.39.21.06-.59.33-.27h0ZM238.52,197.29l.5.59-.06.32.17.05-.06.37-.39.05.22.32-.72-.21.11-.8.22-.69h0ZM236.53,197.23l.33.27v.64l-.61.21-.17-.64.44-.48h0ZM235.09,197.23l.22.16-.22.69-.28-.53.28-.32h0ZM241.79,197.23h.22l.06.59-.39-.32.11-.27h0ZM239.8,197.34v.43l-.44.21.33-.85.11.21h0ZM241.12,196.81l.39.32-.17.37-.55.21-.17-.48.5-.43ZM237.08,196.75l.17.21-.06.37-.33-.21.22-.37h0ZM234.04,196.81l.28.59.28.05-.06.21-.39.11-.11.43-.44-.11-.22-.85.66-.43h0ZM240.13,196.59l.22.16.39,1.39-.77-.64.17-.91ZM231.77,196.49l.39.75v.85l-.33.75.11.37-.55.27-.77-.27-.06-.32.44-1.28.77-1.12h0ZM239.35,196.7l.39-.43.22.21-.61.8-.11-.43.11-.16ZM241.57,196.22l.55.32-.17.48-.72-.21.33-.59h0ZM237.42,196.17l.39.37-.17,1.01-.44-.96.22-.43h0ZM236.7,196.22l.17.21-.22.64-.17-.27.22-.59h0ZM235.37,196.11l.39.21.11.37-.5.48h-.5l.22-.91.28-.16h0ZM238.47,196.17l.39.05.39.43-.28.96-.72-.69.22-.75h0ZM237.64,195.9l.33.11-.22.27-.11-.37ZM239.91,195.95l.89-.11.61.32-.17.27-.55.43-.77-.91ZM238.58,195.79l.89.16.11.43-.22.21-.22-.43-.61-.11.06-.27h0ZM238.85,195.21l.06.32.39.05.11.16-.55-.05-.22-.43.22-.05h0ZM237.86,194.73l.66.21-.44.69-.55-.16.33-.75h0ZM231.83,194.62l-.61,1.12-.44.27.28-1.01.77-.37h0ZM239.63,194.73l1.05.11-.06.91-.5.11-1.11-.48.17-.53.44-.11h0ZM242.29,194.35l.44.75-.17.64-.33.11-.61-1.12.06-.43.61.05ZM240.29,193.98l.17.53-1.05-.16.89-.37ZM239.96,193.71l.17.21-.72.21-.11.27-.28-.05.28-.64.44-.16.22.16ZM240.13,192.65l.66,1.23-.5.05-.5-.48.5-.21-.39-.64.22.05ZM241.29,192.75l.33.43-.22.69-.44.32v.48l.28.27-.11-.64h.33l.11.85.55.8-.11.21-.89-.43-.28-.69-.11-.85.33-.37-.44-.85.28.11.39-.32h0ZM241.79,192.54l.55.85-.17.8-.83-.11.33-.8-.28-.69.39-.05ZM238.25,192.54l1.11.37-1.22,1.07.61.59-.11.27-.77-.27-.33-.91.72-1.12ZM240.07,193.13l-.89.48-.44.64h-.17l-.22-.27,1.27-1.12.22-.05.22.32h0ZM241.18,192.22l.17.32-.33.27-.06-.21v-.27l.22-.11ZM239.63,191.53l.17.53-.33.21.28.48-.39.05-.5-.32.06-.27.72-.69h0ZM239.96,190.78l.61.05.22.43.28.11.11.75-.5.21.11.59-1.16-.59.28-.16-.17-1.07.22-.32h0ZM241.62,190.35v.69l.44.32-.33.16.83,1.07v.64l.33-.11-.39.32-.5-.91-.55-.05-.22-.59.22-1.71.17.16ZM240.57,188.49v.85l.33.75-.39.27-.28-1.55.33-.32h0ZM241.01,188.22l.28.11.44,1.44-.44.21-.22,1.23-.39-.32v-.48l.28-.21-.33-.85v-1.01l.39-.11h0ZM230.39,130.73l.66.21.11.75.61.32.66-.27.44.21.83-.11.22.32,1.27.27,1.16-.85-.11-.37.44-.11h.72l.44.32.33-.21.44.53.33-.11h0l1.38.48.06,1.97.5-.59.39.37-.17.32.28.21.72-.21.28.48.5.11.11.75.33.37,1.44-.11,1.38-.64.17.32.66.11.11.32,1.16-.11.72.48.28-.05.11.21-.5.43.22.11h.33l.17-.27.61.21.33-.16.22.48.39-.21.55.16h0l.22.69-.22.32.22.48-.17.05-.11,1.12.22.37-.5.8.22-.05.11.21-.89.37v.27l-.33.11.11.43-.5-.21.22.43-.17.16-.22-.16.28.37-.39.27.39.05-.44.27.44.16-.17.11h0l-.22-.05-.28-.43-.06-.21-.39-.11.28.64-.5-.05-.06.32-.22-.05.44.48-.44.21.17.16.22-.21.22.53-.83.48v.69l-.44-.05v-.43l-1.22-.05-.11-.48-.39.48-.55-.05-.83-.48v-.21h-.28l.11-.32-.5-.37-.77-.21-.28-.53.06-.69-.44-.59.44-.48h-.61l.17-.21-.22-.32.06-.43h-.61l-.55-.59-.17.43-.22-.11-.28.32.11.53.5.05.06.16h.28l.17.32-.17.32.5.21.39-.11.06.48-1.16.16-.39-.59-.55-.05-.22.16.22.48-.44.05-.33-.32v-.53l-.28-.16-.44.16-.17-.64-.5.21-.28-.48.22-.11-.89-.59-.06-.43h-.28v.27l-.44-.11.06-.43-.39.11-.5-.75-.61-.05-.22-1.07-.44.53-.5,1.44.22.37.11-.53,1.33.32.5,1.28-.44.11-.33-.32-.22.48-.39.11.11.16-.72.43v.75l-1.16.37-.83.53-.22.85.28.11-.17.48.17.11-.5.16-.66,1.23.28.27.11,1.17.39.27.39-.32.28.16.72-.27v.37l1.22.85.33.53.55.11-.11.8.61.21-.06.27.94.64.39-.11.44.43.55.11.17-.32.66.05-.06-.37h.55l.33.64-.28.75.33.21v.37l.5.48.22-.16.22.37,1,.16-.61.43v.48h-.28l.17.43-.28.21-.89-.53-.5.48-.33-.21-.22.16-.5-.37-1.05.05-.61.37-.77-.43-.61.21.22.69-.22.21.11.59-.17.37.22.16-.66.8.06.27-.72.11-.17.37.28.21-.28.32-.55-.37-.17.27v-.53l-.39-.53-1,.27.44.91-.33.11-.11.53-.17-.21-.17.53-.39.11-.06.59-.61.69,1.6,1.97.61.53.89.27.66.69,1.33.05.94.43.33.59.17-.37h.22l.5.27.83-.05.39.43-.06.96-.39.37.11.59-.17.05.06.21h.28v1.23l.39-.16.17.27-.44.11-.06.8h-.33l-.5.53-.94.11.28.53-.5.37.22.27-.22,1.49.33.05-.11.43.72-.11.17.69,1,.85.66-.16-.11.64h-.28l-.11.27.06.69-.33.21.17.43-.55.16.28.53.89.43h.22l.06-.43.39.32.72-.05.06.27.89-.05-.17.37-.22-.11-.5.8-.61.37.06,1.12h-.33l.22.16-.06.43.39.05.22.37-.06.48h.44l.28.43-.11.59-.44.37.44.85-.33.85.28.11-.22.48-.77.27-.28.48.17.32-.17,1.12.33.37-.66-.11-.22.91-.66.59-.06.37-.83.21-.72,1.23.22.75-.44.85.11.75-.33.27-.06-.21-.39.05-.17.59-.39-.32.39-.64-1.22.27-.28.27-.06,1.01h-.33l-.11-.69-.44.11-.61.48.17.64-.66-.11-.61-1.39.17-.59-.28-.37.61-.75.17-.64-.28-1.01-.44-.37-1.11-.16.39-1.12-.66,1.01-.72-.32-.28-.48-.17-1.49-.28-.37-.44-.05.66.91v1.28l.77.69,1.49.21.61,1.01-1.49,1.01-.11.05-.83,1.81-.61.69-.44.11-1.16,1.17-.44-.05-.72.53-2.38.59h0l-.28-.43.17-.75-.33-.27v-.37h-.83l-.22-.32-1.05-.32-.33-1.71-.77-.21-.11.53-.77.27v.59l-.72-.05-.39-.53.44-.96-.22-.64-.72-.53-1.44-.16-.5-.69-.89.11.11-.85h0l.5.05.11-.05h.28l.11-.32v-.32l.06.16.83-.05v-.53l-.66-.37.17-.85-.94-.37-.22-.59h.5l.11-.32-.44-.91-1.27-.05-.39-1.17-.89-.59-.39.21-1.05-.91.17-1.01.33-.43-.33-.32.44-.32.17.16.39-.11.28-.53-.33.27-.17-.27-.94-.05-.28.27-1.11-.48-1,.27-.72-.59-.17-.53-1.05-.32-.11-.43-1.44.16-.66-.8h-.28l-.06-.85.61-.75-.11-.48.33-.05-.39-.48.06-.75.89.21,1.22-.48-.44-.69.44-.37,1.11.21v1.17l.89.21.22-.16-.17.43.22.21.39-.27.28.27.17-.11-.17-.21.83-.48-.22-.16.06-.59.28-.48.66-.32v-.27h1.05l.72-.53,1.16-.27h.44l.06.21.61-.11.33-.91-.33-.85.33.27.61-.43.06-.21.22-.21.5.43.33-.27,1.83.85h.28l.22-.32-.39-.59.77.16-.06.16.33.11.28.05.06-1.01.28.43.28-.32-.06-.69-.33-.11-.28-.91,1.11.11-.22.32.17.11.33-.16,1.16.32-.28-.32.55-.05.33-.32-.22-.16v-.8l.94.37-.06-.27.44-.27-.44-.32,1.38.05.06-.43-.61-.32v-.37l.55-.05.33-.53.55-.16.61-1.28-.28-.11.44-.96-.17-.21-.11.27.11-.64-.44-.43.89.37.44-.16.28-.37-.44-.21h.33l-.22-.16.33-.37-.33-.21.17-.59-.72-.21-.28-.32.22-.27v.32h.22l.28-.37-.11-.37h.33l-.11-.37,1-.53-.06-.43-1.05-1.23-1.16-.8.11-1.6h0l.55.27-.17-.43.39-.53-.83-.69.06-.48-.28-.05-.06-.32.28-.48.33.11.28-.37h.33l.17-.64.22.16.33-.37.72.16v.27l.22.11.06-.21.22.32.5.05.06-.27-.44-.43-.17-.64.39-.59-.22-.05.17-.69-1-.43-.33-.59h-.39l.17-.53-.33-.16.33-.27-1-.27-.22-.48.28-.27.17-1.33.83-.59.22.27.06-.21.33.05-.06-.91.55.16.28-.48h.39l.89-.96.83-.37.89-.91-.28-.32-.33.05-.06-.21.44-.37-.44-.32-.06-.37-.39.05-.17-.21.61-.53v-.27l-.72.16-.28.32-.44-.32h0v-.05h0l.66-1.23.33-1.71-.17-1.17-.44-.43.11-.27-.28-.37.17-.43-.5-.21-.17-.37h-.44l-.17-.64-.33-.21.33-.8-.28-.43h0Z"/>
</svg>